<?xml version="1.0" encoding="UTF-8" standalone="no"?>
<!-- Created with Inkscape (http://www.inkscape.org/) -->

<svg
   width="210mm"
   height="297mm"
   viewBox="0 0 210 297"
   version="1.1"
   id="svg5"
   inkscape:version="1.1 (c68e22c387, 2021-05-23)"
   sodipodi:docname="Kryptonite.svg"
   xmlns:inkscape="http://www.inkscape.org/namespaces/inkscape"
   xmlns:sodipodi="http://sodipodi.sourceforge.net/DTD/sodipodi-0.dtd"
   xmlns="http://www.w3.org/2000/svg"
   xmlns:svg="http://www.w3.org/2000/svg">
  <sodipodi:namedview
     id="namedview7"
     pagecolor="#ffffff"
     bordercolor="#666666"
     borderopacity="1.0"
     inkscape:pageshadow="2"
     inkscape:pageopacity="0.0"
     inkscape:pagecheckerboard="0"
     inkscape:document-units="mm"
     showgrid="false"
     inkscape:lockguides="false"
     inkscape:zoom="0.78239463"
     inkscape:cx="419.86485"
     inkscape:cy="464.5993"
     inkscape:window-width="2106"
     inkscape:window-height="1081"
     inkscape:window-x="104"
     inkscape:window-y="118"
     inkscape:window-maximized="0"
     inkscape:current-layer="layer1" />
  <defs
     id="defs2" />
  <g
     inkscape:label="Layer 1"
     inkscape:groupmode="layer"
     id="layer1">
    <path
       style="fill:#000000;fill-opacity:0.027451;stroke-width:1.28582"
       d=""
       id="path19544"
       transform="scale(0.26458333)" />
    <path
       style="fill:#000000;fill-opacity:0.027451;stroke-width:1.28582"
       d=""
       id="path19659"
       transform="scale(0.26458333)" />
    <path
       style="fill:#77bc3f;fill-opacity:0.02745098;stroke-width:1.28582"
       d=""
       id="path19772"
       transform="scale(0.26458333)" />
    <g
       id="g24998"
       transform="matrix(1.2039637,0,0,1.2350162,-50.054939,-12.798283)">
      <path
         style="fill:#000000;stroke-width:0.197071"
         d="m 102.09123,152.56221 c 0,-0.1605 0.52057,-1.23934 1.15682,-2.39743 l 1.15683,-2.10562 -0.54046,-1.99656 c -1.78371,-6.5894 -2.24518,-8.20407 -2.32246,-8.12647 -0.0475,0.0477 -0.1461,0.38 -0.21917,0.73851 -0.12702,0.62319 -0.17364,0.65259 -1.06071,0.66884 -1.189234,0.0218 -1.714478,0.31399 -2.359193,1.31244 -0.778166,1.20511 -1.086559,2.33843 -1.466086,5.38773 l -0.343765,2.76197 -1.204739,0.0581 c -0.852234,0.0411 -1.23015,-0.0166 -1.291587,-0.19748 -0.08366,-0.24625 1.150164,-11.05811 1.319368,-11.5615 0.10723,-0.31901 1.70697,-0.32683 2.022605,-0.01 0.129797,0.13033 0.235994,0.59492 0.235994,1.0324 v 0.79543 l 0.583166,-0.71043 c 0.32074,-0.39074 0.887226,-0.85532 1.258858,-1.0324 0.76981,-0.36683 2.003379,-0.42698 2.200139,-0.10729 0.0951,0.1546 0.19197,0.1546 0.34593,0 0.30015,-0.3014 2.20304,-0.27182 2.45929,0.0382 0.11498,0.13911 0.62954,1.93867 1.14347,3.99902 l 0.93443,3.74607 1.74941,-3.65342 c 0.96217,-2.00937 1.88813,-3.80893 2.05768,-3.99901 0.21989,-0.24651 0.60632,-0.34559 1.34783,-0.34559 0.57176,0 1.08487,0.0736 1.14025,0.16361 0.10934,0.17765 -7.41399,14.9199 -7.90331,15.48685 -0.39519,0.45789 -2.40059,0.50282 -2.40059,0.0538 z m 3.78276,-3.5591 c 0.95227,-1.84646 2.70461,-5.24562 3.89409,-7.5537 l 2.16269,-4.19649 h -0.78898 -0.78897 l -2.07364,4.16097 c -1.20792,2.42381 -2.1697,4.12882 -2.30373,4.08396 -0.12655,-0.0423 -0.68084,-1.89258 -1.23175,-4.11161 l -1.00167,-4.03458 -0.91624,-0.0599 -0.91624,-0.0599 0.27452,0.94855 c 0.72043,2.48924 2.66042,9.68966 2.66042,9.87433 0,0.1147 -0.52765,1.15753 -1.17257,2.3174 l -1.17257,2.10885 0.82161,-0.0604 0.82162,-0.0604 z m -9.84961,-3.32683 c 0.562467,-4.73718 1.697507,-6.71129 3.882431,-6.75253 0.856009,-0.0161 0.900989,-0.0463 1.032279,-0.69087 0.16927,-0.83107 0.0852,-0.97996 -0.55349,-0.97996 -0.800482,0 -1.872812,0.72765 -2.670102,1.81185 -0.405616,0.55158 -0.738838,0.88055 -0.740493,0.73103 -0.0024,-0.21488 -0.04394,-0.20978 -0.198393,0.0244 -0.136832,0.20745 -0.180129,-0.11804 -0.144486,-1.08616 l 0.05089,-1.38237 h -0.685745 -0.685743 l -0.631341,5.23328 c -0.347236,2.8783 -0.636011,5.3939 -0.641724,5.59022 -0.0087,0.29907 0.125137,0.3471 0.825431,0.29622 l 0.835813,-0.0607 z m 15.79755,6.93087 c -0.0495,-0.13577 0.32936,-3.71266 0.84198,-7.94865 l 0.93204,-7.70181 0.85035,-0.0614 c 1.08043,-0.0781 1.41126,0.20252 1.41126,1.19691 v 0.79091 l 0.89686,-0.83015 c 1.10653,-1.02422 1.95216,-1.39246 3.19764,-1.39246 3.00876,0 4.23632,3.80462 2.61242,8.09676 -0.96146,2.54126 -3.09186,4.34462 -5.1325,4.34462 -0.68114,0 -1.36962,-0.1391 -1.81364,-0.36642 -0.84242,-0.43128 -0.81594,-0.47788 -1.05018,1.84753 -0.21986,2.18257 -0.28077,2.27104 -1.5635,2.27104 -0.69501,0 -1.12545,-0.0898 -1.18273,-0.24685 z m 2.07524,-0.39496 c 0.0181,-0.71663 0.56787,-4.34511 0.6746,-4.45228 0.0686,-0.0689 0.27531,-0.0155 0.45941,0.11863 2.40704,1.75345 5.22467,0.59106 6.84792,-2.82508 1.43515,-3.02026 1.16955,-6.54369 -0.57372,-7.61105 -1.4112,-0.86406 -3.34936,-0.23475 -4.80867,1.56135 -0.45969,0.56579 -0.83581,0.93126 -0.83581,0.81217 0,-0.11909 -0.0879,-0.162 -0.19529,-0.0953 -0.12319,0.0765 -0.17765,-0.33853 -0.1475,-1.12386 l 0.0478,-1.24507 h -0.67815 -0.67816 l -0.82153,6.81313 c -0.45184,3.74722 -0.85901,7.14639 -0.90482,7.5537 l -0.0833,0.74055 h 0.84549 c 0.54196,0 0.84773,-0.0886 0.85172,-0.24685 z m 2.24839,-4.81458 c -0.22017,-0.0492 -0.65643,-0.29455 -0.96946,-0.54519 l -0.56915,-0.45572 0.22707,-1.85651 c 0.48254,-3.94529 2.91129,-6.92086 4.99858,-6.12396 1.50294,0.5738 1.678,3.96147 0.34521,6.68006 -0.88494,1.80506 -2.39548,2.66717 -4.03225,2.30132 z m 1.61665,-0.48063 c 1.54588,-0.58651 2.62817,-2.55309 2.7645,-5.02324 0.0977,-1.7695 -0.10015,-2.49738 -0.80464,-2.96091 -1.54604,-1.01723 -3.96605,2.0053 -4.42207,5.52304 -0.22684,1.74988 -0.15305,1.9574 0.85248,2.39746 0.73105,0.31994 0.91505,0.32722 1.60973,0.0637 z m 8.61677,1.99817 c -0.60876,-0.25019 -1.10082,-0.89916 -1.2772,-1.68447 -0.13917,-0.61965 0.26918,-5.07836 0.69114,-7.54629 0.10399,-0.60821 0.0825,-0.63159 -0.63647,-0.69119 -0.72644,-0.0602 -0.74409,-0.0804 -0.74409,-0.84971 0,-0.78072 0.008,-0.78957 0.90404,-0.95389 l 0.90404,-0.16584 0.3408,-1.61339 c 0.451,-2.13514 0.69722,-2.50206 1.67896,-2.50206 0.42378,0 0.81321,0.0694 0.8654,0.15418 0.0522,0.0848 -0.0153,1.0179 -0.15002,2.07356 l -0.24491,1.91938 h 1.41889 c 1.56046,0 1.64522,0.0683 1.47068,1.1849 l -0.10805,0.69118 -1.4994,0.0573 -1.49941,0.0572 -0.21868,1.7201 c -0.68992,5.42674 -0.71,5.76017 -0.36766,6.10393 0.29997,0.30123 0.38245,0.29788 1.14259,-0.0463 l 0.81928,-0.37099 0.37847,0.46933 c 0.57209,0.70945 0.38844,1.22687 -0.61598,1.73548 -0.9038,0.45766 -2.46488,0.58132 -3.25242,0.25764 z m 2.99923,-0.59797 c 0.78713,-0.35878 0.82286,-0.4099 0.61174,-0.87517 -0.21295,-0.46935 -0.25195,-0.47974 -0.77702,-0.20708 -1.23062,0.63903 -1.94909,0.1754 -1.94875,-1.25753 1.2e-4,-0.50817 0.17702,-2.30138 0.3931,-3.98491 0.21609,-1.68354 0.39298,-3.12762 0.3931,-3.20908 1.3e-4,-0.0815 0.70821,-0.14812 1.57352,-0.14812 h 1.5733 v -0.59244 -0.59245 h -1.5003 -1.5003 l 0.12003,-0.93804 c 0.066,-0.51592 0.17895,-1.45619 0.25094,-2.08949 l 0.1309,-1.15144 -0.56976,0.0653 c -0.5473,0.0627 -0.5892,0.14314 -1.06289,2.04011 l -0.49314,1.97482 -0.8835,0.21323 c -0.67309,0.16246 -0.89846,0.3153 -0.94634,0.64182 -0.0557,0.37992 0.028,0.42859 0.73748,0.42859 0.96643,0 0.94306,-0.22679 0.407,3.94964 -0.45598,3.55264 -0.47717,4.46367 -0.11888,5.1128 0.57073,1.034 2.11782,1.29948 3.60977,0.61944 z m 5.55557,0.64838 c -0.77694,-0.27682 -1.84637,-1.20767 -2.32321,-2.02216 -0.48432,-0.82726 -0.52787,-1.07545 -0.52215,-2.97609 0.008,-2.51385 0.44415,-3.81651 1.77866,-5.30698 1.22365,-1.36669 2.55664,-1.99986 4.21022,-1.99986 3.26912,0 5.12408,2.56458 4.55134,6.29246 -0.56055,3.64842 -3.07209,6.16399 -6.12157,6.13139 -0.70306,-0.008 -1.41105,-0.061 -1.57329,-0.11876 z m 3.63824,-0.72332 c 4.0644,-1.90461 5.03128,-8.85076 1.4932,-10.72714 -2.44507,-1.29671 -5.49362,0.12585 -6.96075,3.24811 -0.55574,1.1827 -0.6243,1.52251 -0.6265,3.10536 -0.003,1.9132 0.32882,2.87443 1.30727,3.7909 1.19078,1.11536 3.14304,1.35304 4.78678,0.58277 z m -3.00752,-1.01822 c -1.02617,-0.4477 -1.49422,-1.72731 -1.36899,-3.74277 0.2127,-3.42368 2.1363,-5.65795 4.43477,-5.15102 1.25075,0.27586 1.85989,1.44683 1.84379,3.54435 -0.0199,2.58659 -0.90491,4.48093 -2.44282,5.22852 -0.99954,0.48588 -1.56647,0.51367 -2.46675,0.12092 z m 1.99054,-0.36637 c 1.41371,-0.59315 2.28108,-2.2201 2.43582,-4.56894 0.13311,-2.02051 -0.20091,-2.94143 -1.22229,-3.36997 -2.14936,-0.90181 -4.10166,1.50998 -4.11777,5.08694 -0.007,1.64879 0.31599,2.37139 1.28524,2.87158 0.60532,0.31238 0.83435,0.30961 1.619,-0.0196 z m 25.45334,1.89766 c -0.65476,-0.40767 -1.132,-1.35673 -1.13169,-2.25058 1.2e-4,-0.36373 0.17701,-2.03878 0.3931,-3.72231 0.51281,-3.9954 0.5317,-3.75216 -0.29125,-3.75216 -0.55912,0 -0.70634,-0.0871 -0.80337,-0.47532 -0.18607,-0.74445 0.20555,-1.24993 1.08385,-1.39894 0.84948,-0.14412 0.81705,-0.09 1.2802,-2.1383 0.44881,-1.98498 0.56621,-2.14227 1.54564,-2.07075 0.79958,0.0584 0.82301,0.0799 0.81727,0.75129 -0.003,0.38015 -0.0717,1.28711 -0.15209,2.01545 l -0.14617,1.32426 1.43039,0.0581 c 1.39113,0.0565 1.43206,0.0728 1.49167,0.59143 0.12341,1.0738 -0.22434,1.34277 -1.73609,1.34277 -1.25645,0 -1.37382,0.0356 -1.46384,0.44433 -0.22374,1.01576 -0.83039,6.76377 -0.74746,7.0822 0.1331,0.51112 0.61128,0.61414 1.28469,0.2768 0.85139,-0.42651 1.07584,-0.37767 1.43062,0.31126 0.41033,0.7968 0.29711,1.03074 -0.74374,1.53671 -1.07417,0.52217 -2.76496,0.55737 -3.54173,0.0738 z m 3.07863,-0.3245 c 0.81551,-0.34217 0.97949,-0.59315 0.71355,-1.09214 -0.19553,-0.36688 -0.23856,-0.37096 -0.75763,-0.0718 -0.69818,0.40237 -1.54865,0.21113 -1.8313,-0.41179 -0.1545,-0.34051 -0.0895,-1.44481 0.25252,-4.28979 l 0.46057,-3.83125 1.52413,-0.0577 c 1.13489,-0.0429 1.52413,-0.12708 1.52413,-0.32944 0,-0.14947 0.0537,-0.41233 0.11938,-0.58414 0.10252,-0.26829 -0.0958,-0.31238 -1.40491,-0.31238 h -1.52428 l 0.13525,-1.62922 c 0.0744,-0.89608 0.18521,-1.82918 0.24626,-2.07357 0.0928,-0.37152 0.0309,-0.44433 -0.3779,-0.44433 -0.63854,0 -0.82889,0.26853 -1.1199,1.57986 -0.59108,2.66343 -0.51759,2.53109 -1.48662,2.67701 -0.75999,0.11444 -0.88045,0.19707 -0.88045,0.60386 0,0.40542 0.0946,0.47129 0.6767,0.47129 0.3722,0 0.71918,0.069 0.77107,0.15331 0.0519,0.0843 -0.12295,1.83946 -0.38857,3.90028 -0.53534,4.15346 -0.47729,4.88235 0.44701,5.61244 0.61071,0.48238 1.92054,0.54085 2.90099,0.12948 z m 5.32756,0.35564 c -2.13863,-1.17436 -3.01927,-3.4026 -2.46792,-6.24444 0.48056,-2.47693 2.07214,-4.65962 4.00732,-5.49558 1.44496,-0.6242 3.52188,-0.50107 4.52643,0.26834 1.24924,0.9568 1.60992,2.18983 1.04074,3.55776 -0.56569,1.35954 -2.29679,2.26073 -5.37965,2.80057 -0.93341,0.16345 -1.72888,0.32909 -1.7677,0.36807 -0.0388,0.039 -0.0108,0.44647 0.0623,0.90551 0.35957,2.25798 2.50949,2.79263 4.74554,1.18012 0.98879,-0.71306 1.52853,-0.69143 1.98266,0.0795 0.32949,0.55932 0.32865,0.56162 -0.45655,1.25253 -1.34404,1.18263 -2.17421,1.50881 -4.03157,1.58397 -1.27624,0.0517 -1.81117,-0.009 -2.26161,-0.25631 z m 3.83123,-0.37449 c 0.45784,-0.1622 1.27244,-0.61926 1.81023,-1.01569 0.97482,-0.71856 0.97662,-0.72196 0.58805,-1.11214 -0.38856,-0.39019 -0.39191,-0.38972 -1.09679,0.15015 -2.68746,2.05838 -5.60431,1.01326 -5.62006,-2.01369 -0.004,-0.78473 0.0308,-0.83613 0.63484,-0.93556 2.57035,-0.4231 3.28071,-0.57954 4.20017,-0.92498 1.32315,-0.49712 2.13676,-1.26018 2.44491,-2.29299 0.21405,-0.71741 0.19695,-0.90136 -0.14584,-1.56786 -1.14482,-2.22603 -4.74793,-2.17629 -6.78572,0.0937 -0.98445,1.09661 -1.50649,2.18183 -1.85349,3.85297 -0.72323,3.48305 0.96092,6.04368 3.98353,6.05669 0.55426,0.002 1.38234,-0.12838 1.84017,-0.29059 z m -4.01401,-6.53798 c 0.24898,-1.0602 1.15545,-2.50143 1.87332,-2.97847 1.75284,-1.16481 3.71766,-0.62275 3.71766,1.02562 0,1.17845 -1.8033,2.14554 -4.4852,2.40536 l -1.24028,0.12016 z m 3.23104,-0.41793 c 1.501,-0.49113 1.80076,-0.76753 1.73196,-1.59699 -0.16958,-2.04424 -3.1947,-1.18377 -4.18027,1.18905 -0.16772,0.40382 -0.30495,0.78695 -0.30495,0.8514 0,0.17083 1.72494,-0.107 2.75326,-0.44346 z m -94.397743,6.97802 c 0,-0.51608 1.682702,-14.77441 1.873063,-15.87135 l 0.11138,-0.64182 h 1.257785 c 0.69178,0 1.299702,0.0681 1.350934,0.15135 0.05123,0.0832 -0.10431,1.72728 -0.345649,3.65342 -0.583813,4.65944 -0.560827,4.66079 3.423231,0.20084 3.759404,-4.20845 3.505928,-4.00561 5.005448,-4.00561 0.694977,0 1.317274,0.0872 1.382884,0.19382 0.06561,0.1066 -1.437723,1.89801 -3.340739,3.98091 -1.903018,2.08289 -3.42185,3.887 -3.375186,4.00911 0.04666,0.12211 1.246088,2.07061 2.665385,4.33 1.419295,2.25938 2.530457,4.18934 2.469247,4.28879 -0.131912,0.21434 -2.450294,0.23925 -2.762547,0.0297 -0.118905,-0.0798 -1.209258,-1.70027 -2.423004,-3.60103 -1.213749,-1.90076 -2.350223,-3.56702 -2.5255,-3.70279 -0.175275,-0.13577 -0.516645,-0.24685 -0.758598,-0.24685 -0.383927,0 -0.455609,0.13195 -0.563221,1.03678 -0.06782,0.57023 -0.273304,2.28092 -0.456639,3.80153 l -0.333337,2.76475 -1.327469,0.0584 c -1.296645,0.057 -1.327468,0.047 -1.327468,-0.42995 z m 2.69125,-3.57809 c 0.238241,-1.95507 0.438153,-3.66576 0.444251,-3.80153 0.0071,-0.15773 0.318252,-0.24685 0.861789,-0.24685 1.074541,0 1.099667,0.0281 3.771626,4.21395 1.167441,1.8289 2.232092,3.36747 2.365892,3.41902 0.133804,0.0516 0.596303,0.0659 1.027778,0.0319 l 0.784498,-0.0618 -2.349924,-3.75215 c -1.292458,-2.06369 -2.476088,-3.89246 -2.630288,-4.06394 -0.154201,-0.17147 -0.280365,-0.42176 -0.280365,-0.55619 0,-0.13444 1.526438,-1.90478 3.392088,-3.9341 l 3.392088,-3.68967 -0.666033,-0.0639 c -0.366318,-0.0352 -0.852909,-0.0101 -1.081311,0.0557 -0.228403,0.0658 -1.784923,1.66684 -3.458935,3.5579 -1.674012,1.89106 -3.222725,3.48662 -3.441584,3.54567 -0.706939,0.19077 -1.479574,0.12073 -1.479345,-0.13408 1.21e-4,-0.13577 0.177018,-1.62429 0.393102,-3.30782 0.521325,-4.06169 0.560457,-3.75217 -0.474368,-3.75217 -1.038712,0 -0.815254,-0.95878 -1.887054,8.09677 -0.43066,3.63861 -0.83641,6.95412 -0.901664,7.36782 l -0.118646,0.75216 0.951622,-0.061 0.951622,-0.061 z m 61.106793,3.77427 c -0.0945,-0.24735 0.95562,-9.90445 1.22215,-11.23892 0.10579,-0.52968 0.15281,-0.55031 1.12514,-0.49371 l 1.01472,0.059 0.0585,0.90313 0.0585,0.90313 0.72503,-0.68664 c 1.47373,-1.39571 3.58851,-1.83228 4.92173,-1.01606 1.49243,0.91371 1.6656,2.39293 0.95888,8.19069 l -0.4333,3.55468 -1.15757,0.0601 c -0.63666,0.0331 -1.23056,-0.0132 -1.31978,-0.10281 -0.0892,-0.0896 0.0557,-2.02726 0.322,-4.30595 0.53139,-4.54679 0.49838,-5.35724 -0.22954,-5.63515 -0.68153,-0.2602 -1.91588,0.29426 -2.60058,1.16817 -1.16032,1.48094 -1.42842,2.30297 -1.77589,5.44513 -0.18097,1.63658 -0.3974,3.08667 -0.48096,3.22243 -0.21779,0.35386 -2.27232,0.33059 -2.40908,-0.0273 z m 2.15487,-0.96015 c 0.0637,-0.46162 0.21807,-1.81684 0.34303,-3.0116 0.15452,-1.4773 0.37452,-2.49057 0.68765,-3.16707 1.22991,-2.6572 3.49318,-3.98689 4.70863,-2.76637 0.60391,0.60643 0.6133,1.21823 0.0864,5.63722 -0.53257,4.46688 -0.56305,4.18245 0.44036,4.1091 l 0.83073,-0.0608 0.45424,-3.85089 c 0.60599,-5.13751 0.43043,-6.49869 -0.9293,-7.20476 -1.36743,-0.71007 -3.15595,-0.12461 -4.62226,1.51308 -0.97189,1.08549 -1.04268,1.05238 -1.13073,-0.52901 -0.0528,-0.94964 -0.0787,-0.98972 -0.67498,-1.04786 -0.7332,-0.0715 -0.62518,-0.52166 -1.34129,5.58995 -0.26727,2.28092 -0.53371,4.48038 -0.59211,4.88768 l -0.10618,0.74056 h 0.86498 0.86497 z m 9.97227,0.39496 c 0.007,-0.46161 0.29514,-3.14984 0.63916,-5.97383 l 0.62547,-5.13454 1.15947,-0.0601 c 0.63771,-0.0331 1.22808,0.0114 1.31193,0.0987 0.13687,0.14258 -1.06856,11.06346 -1.28724,11.66216 -0.0585,0.16019 -0.5066,0.24685 -1.27632,0.24685 h -1.18614 l 0.0137,-0.8393 z m 2.70261,-4.93705 c 0.34785,-2.95976 0.63122,-5.49247 0.62972,-5.62824 -0.001,-0.15568 -0.2919,-0.24685 -0.78565,-0.24685 -0.65184,0 -0.79925,0.0743 -0.88057,0.44433 -0.0866,0.39369 -1.28645,10.35813 -1.28645,10.68316 0,0.071 0.38035,0.12899 0.84524,0.12899 h 0.84524 z m -0.95138,-8.74399 c -1.02671,-1.09744 -0.28635,-2.85808 1.20183,-2.85808 0.57919,0 0.84276,0.12873 1.24402,0.60759 0.28003,0.33418 0.50914,0.81614 0.50914,1.07101 0,0.25486 -0.22911,0.73682 -0.50914,1.071 -0.67247,0.80251 -1.75176,0.85038 -2.44585,0.10848 z m 1.92792,-0.20327 c 0.91018,-0.64018 0.34637,-2.25985 -0.78665,-2.25985 -0.50711,0 -1.13621,0.71073 -1.13621,1.28364 0,0.57289 0.6291,1.28363 1.13621,1.28363 0.19226,0 0.54625,-0.13835 0.78665,-0.30742 z M 45.583692,122.70507 c -0.07211,-0.0724 -0.131109,-1.00551 -0.131109,-2.07356 v -1.94191 h 28.22099 28.220987 v 2.07356 2.07356 H 73.804682 c -15.449436,0 -28.148882,-0.0593 -28.22099,-0.13165 z m 55.917548,-1.94191 v -1.6786 H 73.673573 45.845907 v 1.6786 1.6786 h 27.827666 27.827667 z m 26.15604,1.94377 c -5.04168,-0.42234 -9.4186,-2.34998 -12.96595,-5.71032 -6.82353,-6.46383 -8.75679,-16.16486 -4.91635,-24.670103 1.28724,-2.85077 4.09102,-6.3149 6.71313,-8.294198 3.5208,-2.657669 8.28877,-4.246695 12.74247,-4.246695 4.4537,0 9.22166,1.589026 12.74246,4.246695 1.59788,1.206155 4.10296,3.896558 5.23551,5.622838 4.19818,6.39901 4.53803,14.847083 0.87405,21.727613 -2.58314,4.85083 -7.00289,8.58658 -12.23592,10.34227 -2.25953,0.75808 -5.79745,1.18228 -8.1894,0.9819 z m 5.09078,-0.67026 c 9.08251,-1.47987 16.28996,-9.27161 17.32654,-18.73116 1.07011,-9.765513 -5.47856,-19.447647 -15.03455,-22.228412 -6.99579,-2.035755 -14.74299,-0.169219 -20.0492,4.830461 -7.11144,6.700638 -8.74719,17.208221 -3.99957,25.692101 1.03762,1.85421 3.18367,4.43417 4.85907,5.84154 2.60962,2.19213 6.55947,4.05896 9.70194,4.58545 1.46212,0.24496 5.71744,0.25089 7.19577,0.01 z m -5.97576,-1.59488 c -9.16066,-1.14904 -16.20689,-8.74451 -16.75325,-18.05916 -0.31668,-5.398883 1.57927,-10.499983 5.39872,-14.525393 2.39954,-2.528936 5.75763,-4.477079 9.21544,-5.346202 2.48636,-0.624948 6.70838,-0.624948 9.19474,0 6.51503,1.637557 11.7368,6.566502 13.75014,12.979082 2.87288,9.150203 -1.32848,18.901803 -10.02724,23.273833 -1.43105,0.71925 -3.97388,1.425 -6.05866,1.68155 -1.99005,0.24489 -2.7426,0.2443 -4.71989,-0.004 z m 6.19486,-0.707 c 5.9916,-1.12515 11.04546,-5.23354 13.49355,-10.96919 2.71218,-6.35443 1.87345,-13.275973 -2.29127,-18.908393 -2.68418,-3.630137 -6.87714,-6.251107 -11.39895,-7.125364 -1.64341,-0.317738 -5.43642,-0.317738 -7.07983,0 -6.74918,1.304898 -12.17292,6.137444 -14.32897,12.767104 -3.38204,10.399503 2.91331,21.691023 13.44399,24.113513 2.76598,0.63629 5.22802,0.67319 8.16148,0.12233 z m -6.23124,-1.44166 c -2.46219,-0.3615 -5.53873,-1.62797 -7.45119,-3.0673 -6.52795,-4.91303 -8.86206,-13.06887 -5.84728,-20.431573 0.94436,-2.30632 2.10822,-3.98949 4.05903,-5.87017 5.58864,-5.387685 13.32923,-6.32572 20.31832,-2.462247 1.65316,0.913847 4.51223,3.615217 5.65452,5.342617 1.99286,3.01368 2.98675,6.61417 2.81506,10.197903 -0.48678,10.16035 -9.59645,17.75192 -19.54846,16.29077 z m 4.36295,-0.41446 c 4.35308,-0.5346 8.41066,-2.78877 11.17201,-6.20657 1.1826,-1.46372 2.54699,-4.23007 3.11343,-6.31255 0.60517,-2.22488 0.60578,-5.867613 0.002,-8.096773 -1.62416,-5.98983 -5.77485,-10.248571 -11.7702,-12.076563 -1.50803,-0.459798 -2.07055,-0.527465 -4.3849,-0.527465 -2.32689,0 -2.87315,0.06647 -4.42101,0.537977 -2.16841,0.660533 -2.77808,0.937353 -4.51745,2.051154 -3.53906,2.266237 -6.06669,5.773967 -7.21662,10.014897 -0.60444,2.22916 -0.60383,5.871893 10e-4,8.096773 2.00074,7.35559 8.08056,12.22905 15.85874,12.71207 0.21633,0.0134 1.18981,-0.0734 2.16328,-0.19295 z m -4.44086,-1.17671 c -3.86348,-0.57069 -7.79625,-3.09571 -10.22528,-6.56508 -3.26622,-4.66513 -3.62066,-11.015823 -0.90587,-16.231293 1.17958,-2.26614 4.13928,-5.2427 6.32889,-6.36497 2.76577,-1.417578 4.10244,-1.731386 7.37483,-1.731386 3.27239,0 4.60905,0.313808 7.37482,1.731386 2.18864,1.12177 5.14873,4.09836 6.32966,6.36497 1.35371,2.59819 1.73409,4.25609 1.72175,7.504323 -0.01,2.56339 -0.0559,2.90139 -0.63376,4.64083 -0.88758,2.67172 -1.81931,4.15324 -3.97607,6.32228 -1.54341,1.5522 -2.15896,2.0209 -3.53991,2.69536 -0.91939,0.44905 -2.09911,0.96012 -2.6216,1.13573 -1.94481,0.65366 -4.82813,0.85227 -7.22746,0.49785 z m 6.21082,-0.70013 c 0.64898,-0.16285 2.10417,-0.74552 3.23375,-1.29482 1.78452,-0.86781 2.27438,-1.22237 3.73657,-2.70458 1.99477,-2.02206 3.10893,-3.88823 3.84811,-6.4454 0.69421,-2.40158 0.83177,-4.68885 0.40822,-6.787853 -0.73693,-3.65211 -1.79142,-5.65017 -4.34349,-8.2301 -1.49627,-1.51262 -2.05885,-1.93192 -3.63824,-2.71174 -2.65092,-1.308857 -3.93086,-1.607837 -6.88317,-1.607837 -2.94266,0 -4.23986,0.300959 -6.82566,1.583597 -4.03813,2.00304 -7.01326,5.91448 -7.94629,10.4471 -0.4468,2.170553 -0.46507,3.704413 -0.0691,5.800603 1.21364,6.42446 6.39274,11.36625 12.87441,12.28451 1.41333,0.20022 4.11965,0.0392 5.60487,-0.33348 z m -6.39152,-2.24929 c -0.3255,-0.32685 -0.39345,-0.65889 -0.39405,-1.92545 l -8.2e-4,-1.53048 -1.27504,-0.66205 c -3.39203,-1.76126 -5.42965,-5.79343 -4.8764,-9.649723 0.4276,-2.98052 2.61052,-6.02492 5.16323,-7.20088 l 0.98973,-0.45592 v -1.50976 c 0,-1.15395 0.0811,-1.60396 0.34416,-1.90945 0.53338,-0.61943 1.0962,-0.69458 1.68989,-0.22565 0.47578,0.37582 0.52255,0.5352 0.52255,1.7808 v 1.36805 h 0.58999 0.58998 v -1.26176 c 0,-0.91776 0.0938,-1.37072 0.34416,-1.66144 0.53339,-0.61943 1.09621,-0.69458 1.68989,-0.22565 0.48771,0.38524 0.52322,0.52046 0.53244,2.02766 l 0.01,1.61489 1.12093,0.53659 c 1.45282,0.69547 2.79256,1.92645 2.79256,2.56588 0,0.57582 -0.74922,1.34088 -1.3131,1.34088 -0.22153,0 -0.74681,-0.27864 -1.1673,-0.61921 -1.46514,-1.18667 -2.73965,-1.64281 -4.60357,-1.64756 -1.50167,-0.004 -1.81217,0.0631 -2.98874,0.6448 -2.46042,1.21631 -3.74662,3.34415 -3.74605,6.197303 5.9e-4,3.36028 2.17305,5.97043 5.57969,6.70406 1.77062,0.38132 4.04284,-0.22521 5.57898,-1.48921 0.49205,-0.40489 1.07454,-0.706 1.36572,-0.706 0.6381,0 1.29437,0.64154 1.29437,1.26533 0,0.60825 -1.55693,2.03961 -2.93115,2.69477 l -1.00209,0.47775 v 1.4893 c 0,1.76241 -0.30428,2.3671 -1.19113,2.3671 -0.97471,0 -1.36548,-0.5934 -1.36548,-2.07356 v -1.28364 h -0.59 -0.58998 v 1.2397 c 0,1.49946 -0.34766,2.1175 -1.19113,2.1175 -0.31836,0 -0.75583,-0.17774 -0.97216,-0.39497 z m 1.56638,-0.38198 c 0.11197,-0.21009 0.20358,-0.96546 0.20358,-1.67859 v -1.29662 h 0.98331 0.98331 v 1.36827 c 0,1.38749 0.26761,1.98892 0.88498,1.98892 0.64875,0 0.88493,-0.59439 0.88834,-2.23577 l 0.004,-1.61513 1.1189,-0.48674 c 1.09417,-0.47598 2.80761,-1.8972 2.80761,-2.32879 0,-0.29806 -0.56179,-0.83789 -0.87198,-0.83789 -0.13965,0 -0.59794,0.27865 -1.01843,0.61922 -0.42048,0.34057 -1.25126,0.84949 -1.84616,1.13093 -0.91573,0.43321 -1.35315,0.51131 -2.8516,0.50915 -2.40892,-0.004 -3.72521,-0.52538 -5.24087,-2.07799 -3.54905,-3.63558 -2.44575,-9.672253 2.15427,-11.787003 2.2926,-1.05396 5.43139,-0.75699 7.20138,0.68135 1.30027,1.05663 1.61954,1.17252 2.07927,0.75474 0.21677,-0.19699 0.39412,-0.47014 0.39412,-0.607 0,-0.39765 -1.72423,-1.81185 -2.87637,-2.35918 l -1.05686,-0.50206 v -1.48831 c 0,-1.71682 -0.2104,-2.25228 -0.88499,-2.25228 -0.65693,0 -0.88497,0.53099 -0.88497,2.06058 v 1.29662 h -0.9833 -0.98331 v -1.29662 c 0,-1.52959 -0.22804,-2.06058 -0.88498,-2.06058 -0.68141,0 -0.88497,0.5372 -0.88497,2.3354 0,1.53192 -0.013,1.57471 -0.51685,1.70169 -0.85228,0.2148 -2.48764,1.36907 -3.40068,2.40027 -2.91396,3.29105 -3.00662,8.340473 -0.21488,11.709083 0.95885,1.15698 2.37685,2.21076 3.50738,2.60651 l 0.62503,0.2188 v 1.5166 c 0,1.05302 0.0936,1.65075 0.30614,1.9555 0.37704,0.54054 0.98778,0.56813 1.26023,0.057 z m 28.5654,6.94894 0.0558,-2.12361 h 28.12267 28.12266 v 2.07357 2.07355 l -28.17849,0.05 -28.17849,0.05 z m 56.00616,0.0487 v -1.67859 h -27.82767 -27.82767 v 1.6786 1.67859 h 27.82767 27.82767 z"
         id="path21" />
      <path
         style="fill:#000000;fill-opacity:0.027451;stroke-width:0.340207"
         d="m 45.89706,120.81451 v -1.53092 h 27.726805 27.726805 v 1.53092 1.53093 H 73.623865 45.89706 Z"
         id="path19505" />
      <path
         style="fill:#000000;fill-opacity:0.027451;stroke-width:0.340207"
         d="m 80.773713,147.26554 c 0.08724,-0.51456 0.469096,-3.61469 0.848575,-6.88917 0.896868,-7.73899 0.916246,-7.82474 1.768313,-7.82474 0.634098,0 0.678413,0.14627 0.489556,1.61597 -0.11421,0.88879 -0.308102,2.49627 -0.430874,3.57217 l -0.223223,1.95618 h 0.957423 c 0.775108,0 1.611371,-0.69056 4.391584,-3.62649 2.041572,-2.15592 3.626625,-3.56234 3.908787,-3.46828 0.315767,0.10525 -0.567679,1.2906 -2.639459,3.54144 -1.712749,1.86078 -3.116001,3.59791 -3.11834,3.86029 -0.0024,0.26237 0.888704,1.86985 1.980097,3.57216 2.866771,4.47148 2.938978,4.62604 2.161161,4.62604 -0.429749,0 -1.289372,-0.98203 -2.605754,-2.9768 -2.547445,-3.86026 -3.16176,-4.50774 -4.276881,-4.50774 -1.001231,0 -0.957977,-0.14989 -1.546325,5.35825 -0.207159,1.93943 -0.297252,2.12629 -1.025184,2.12629 -0.682268,0 -0.775052,-0.13575 -0.639456,-0.93557 z"
         id="path19620" />
      <path
         style="fill:#77bc3f;fill-opacity:0.027451;stroke-width:0.340207"
         d="m 45.89706,120.81451 v -1.53092 h 27.726805 27.726805 v 1.53092 1.53093 H 73.623865 45.89706 Z"
         id="path20811" />
      <path
         style="fill:#77bc3f;fill-opacity:0.027451;stroke-width:0.340207"
         d="m 45.89706,120.81451 v -1.53092 h 27.726805 27.726805 v 1.53092 1.53093 H 73.623865 45.89706 Z"
         id="path20850" />
      <path
         style="fill:#77bc3f;fill-opacity:1;stroke-width:0.340207"
         d="m 45.89706,120.81451 v -1.53092 h 27.726805 27.726805 v 1.53092 1.53093 H 73.623865 45.89706 Z"
         id="path21185" />
      <path
         style="fill:#77bc3f;fill-opacity:1;stroke-width:0.0601406"
         d="m 127.34387,120.00903 c -4.27641,-0.46725 -7.9934,-2.16456 -10.99932,-5.02269 -3.44762,-3.27812 -5.61187,-8.00401 -5.82898,-12.72825 -0.15197,-3.306894 0.46382,-6.288846 1.91585,-9.277532 2.23558,-4.601459 6.15266,-8.022421 11.01355,-9.618662 2.07758,-0.682239 2.8287,-0.784572 5.76326,-0.78518 2.59103,-5.3e-4 3.01204,0.03848 4.54101,0.420846 4.4081,1.102381 8.3352,3.834326 10.84906,7.547305 1.62029,2.393186 2.60657,4.768752 3.09613,7.457424 0.2084,1.144535 0.27764,1.955425 0.27764,3.251659 0,2.45618 -0.39567,4.54495 -1.30352,6.8814 -2.31352,5.95411 -7.36958,10.26978 -13.49105,11.51546 -1.47712,0.30059 -2.1966,0.37506 -3.81892,0.39531 -0.82693,0.0103 -1.73355,-0.006 -2.01471,-0.0371 z m 4.02942,-1.6502 c 3.82033,-0.53587 7.1611,-2.19478 9.86489,-4.89858 3.94753,-3.94753 5.75839,-9.5165 4.86812,-14.971017 -0.41246,-2.527083 -1.47075,-5.144936 -2.8469,-7.042258 -0.99767,-1.375503 -3.35821,-3.64571 -4.80291,-4.619114 -1.5596,-1.050812 -3.99368,-2.007606 -6.21117,-2.441491 -2.00941,-0.393173 -4.53333,-0.381098 -6.45939,0.0309 -3.35646,0.717973 -6.27889,2.376974 -8.84672,5.022085 -0.41365,0.426103 -0.93695,1.004774 -1.16287,1.28593 -1.97962,2.463557 -3.28406,5.747174 -3.59216,9.042361 -0.11154,1.192974 -0.0441,3.162794 0.14567,4.254624 0.52586,3.02555 1.6637,5.56269 3.58454,7.99276 0.60294,0.7628 2.04496,2.20702 2.83034,2.83466 2.52983,2.02172 5.97713,3.35776 9.3509,3.62401 0.61664,0.0487 2.60973,-0.0212 3.27766,-0.11487 z"
         id="path21927" />
      <path
         style="fill:#ffffff;fill-opacity:1;stroke-width:0.0601406"
         d="m 127.67464,116.34483 c -1.13692,-0.10203 -2.70868,-0.49776 -3.9403,-0.99206 -4.36038,-1.75001 -7.73771,-5.4979 -8.98575,-9.97165 -0.77809,-2.78917 -0.79773,-5.05479 -0.0684,-7.890022 0.51894,-2.01739 1.58077,-4.118319 2.92114,-5.779802 0.96784,-1.199711 2.54178,-2.565265 3.86284,-3.351416 1.13144,-0.673312 2.85483,-1.430663 3.85976,-1.696199 1.13998,-0.301217 1.5317,-0.34305 3.49338,-0.373067 3.15036,-0.04821 4.21645,0.154535 6.61546,1.258077 1.93588,0.890501 2.63665,1.378408 4.12147,2.869557 2.66844,2.679817 3.7464,4.655677 4.47364,8.199951 0.48106,2.344551 0.31023,4.784301 -0.51597,7.368631 -0.75324,2.35613 -1.7817,4.00854 -3.74693,6.02014 -0.98644,1.00972 -1.5908,1.51336 -2.37017,1.97519 -1.04226,0.61762 -3.10058,1.53657 -4.26704,1.90505 -1.17115,0.36997 -3.88866,0.59802 -5.45313,0.45762 z m 0.37838,-2.32577 c 0.20808,-0.15414 0.41368,-0.45628 0.49946,-0.734 0.037,-0.11966 0.0811,-0.725 0.0981,-1.3452 l 0.0309,-1.12764 h 0.56409 0.5641 v 0.95929 c 0,1.39273 0.13823,1.89871 0.60266,2.20606 0.35072,0.23209 0.94869,0.26452 1.32021,0.0716 0.52272,-0.27144 0.66201,-0.81578 0.66272,-2.59001 l 5.3e-4,-1.12724 0.82693,-0.41465 c 0.45481,-0.22806 1.04344,-0.56886 1.30806,-0.75733 0.58763,-0.41854 1.42682,-1.23163 1.63752,-1.58659 0.17818,-0.30018 0.2007,-0.67379 0.0571,-0.94816 -0.22711,-0.43406 -0.76734,-0.80072 -1.18346,-0.80324 -0.29852,-0.002 -0.84142,0.27621 -1.49644,0.76632 -1.00012,0.74833 -2.03935,1.20932 -3.22459,1.43039 -0.79718,0.14869 -1.97887,0.0965 -2.70632,-0.11942 -0.70267,-0.20861 -1.37304,-0.49938 -1.97879,-0.85828 -0.67419,-0.39944 -1.76577,-1.49248 -2.15304,-2.15591 -0.61931,-1.06093 -0.88097,-1.98291 -0.92926,-3.27431 -0.11245,-3.007144 1.21377,-5.241246 3.85825,-6.499462 0.80298,-0.382048 1.07035,-0.464579 1.76108,-0.54361 1.06452,-0.121796 2.49711,0.0163 3.41763,0.329462 0.71962,0.244813 1.11273,0.468852 2.12836,1.212979 0.59013,0.432374 1.07217,0.689393 1.29296,0.689393 0.57064,0 1.29893,-0.750424 1.30796,-1.347713 0.005,-0.352409 -0.2479,-0.746239 -0.82842,-1.288381 -0.58946,-0.550489 -1.21621,-0.961321 -2.19348,-1.437819 -0.44654,-0.217729 -0.82543,-0.407229 -0.84197,-0.421117 -0.0165,-0.01389 -0.0436,-0.706405 -0.0601,-1.538927 -0.0344,-1.732323 -0.0424,-1.762525 -0.56798,-2.140035 -0.24512,-0.176064 -0.35486,-0.214461 -0.65988,-0.230873 -0.44312,-0.02384 -0.73848,0.121587 -1.03411,0.50918 -0.26424,0.34644 -0.32407,0.694394 -0.32407,1.884593 v 1.019429 h -0.57134 -0.57133 V 90.72825 c 0,-1.304126 -0.0559,-1.618543 -0.33817,-1.900772 -0.33641,-0.336418 -0.64735,-0.464793 -1.05445,-0.435345 -0.27672,0.02 -0.39682,0.06328 -0.57606,0.20752 -0.54315,0.437095 -0.61736,0.728372 -0.61736,2.423052 v 1.253747 l -0.91715,0.452945 c -1.0862,0.536437 -1.71543,0.994045 -2.52117,1.833507 -2.92914,3.051749 -3.62789,7.170646 -1.84843,10.895986 0.47648,0.99751 1.00651,1.73624 1.85784,2.58932 0.84195,0.84368 1.33777,1.19835 2.59731,1.8579 l 0.82226,0.43058 0.0197,1.45561 0.0197,1.45562 0.16798,0.28576 c 0.16191,0.27545 0.42038,0.46149 0.82434,0.59335 0.25422,0.083 0.77126,0.0242 0.94971,-0.10797 z"
         id="path21966" />
      <path
         style="fill:#ffffff;fill-opacity:1;stroke-width:0.120281"
         d="m 126.86275,116.22429 c -2.01636,-0.36731 -4.45414,-1.37635 -6.17538,-2.55609 -2.07058,-1.41918 -4.20107,-4.01796 -5.20726,-6.35184 -1.11324,-2.58217 -1.52255,-5.28127 -1.17731,-7.76343 0.49013,-3.523885 1.94443,-6.489147 4.36449,-8.898978 1.36975,-1.363961 2.60621,-2.244915 4.21582,-3.003682 2.19067,-1.032674 3.74283,-1.373044 6.26813,-1.374529 2.87346,-0.0016 4.47023,0.381268 7.02892,1.685764 1.57765,0.804333 2.6925,1.684065 4.10011,3.235412 1.98753,2.190488 2.9133,3.963006 3.61718,6.925657 0.37277,1.569005 0.40558,4.495766 0.0677,6.037506 -0.50545,2.30617 -1.34309,4.24987 -2.52522,5.85963 -1.08273,1.47439 -3.09244,3.39447 -4.21933,4.03115 -1.33622,0.75496 -3.88083,1.79225 -4.91158,2.00218 -1.04867,0.21358 -4.60079,0.32527 -5.44625,0.17125 z m 1.31679,-2.31483 c 0.35505,-0.31216 0.54756,-1.13196 0.54756,-2.33183 v -0.76541 h 0.54127 0.54126 v 1.0864 c 0,1.64181 0.37658,2.28147 1.34315,2.28147 0.95177,0 1.30304,-0.76599 1.30304,-2.84151 v -1.00446 l 0.81195,-0.40889 c 1.06224,-0.53494 2.25719,-1.44042 2.69076,-2.03894 0.59787,-0.82534 0.35769,-1.7041 -0.5474,-2.0028 -0.48236,-0.1592 -1.02235,0.0218 -1.73304,0.58083 -3.26295,2.56675 -7.82583,1.91073 -10.05123,-1.44509 -0.67531,-1.01834 -0.93375,-1.89787 -1.00224,-3.41079 -0.10028,-2.215305 0.40914,-3.624556 1.82988,-5.062172 0.66163,-0.669483 1.0791,-0.968261 1.92712,-1.379217 1.00585,-0.487439 1.16506,-0.527981 2.24761,-0.572365 1.99995,-0.082 3.42912,0.310943 4.74533,1.304692 0.34545,0.260818 0.84956,0.58965 1.12024,0.730737 0.42805,0.22311 0.53913,0.237064 0.85281,0.107132 0.50832,-0.210553 0.9572,-0.7854 0.9572,-1.225817 0,-0.806884 -1.08737,-1.836481 -2.90462,-2.750288 l -0.91997,-0.462614 -0.0423,-1.566235 c -0.0422,-1.562126 -0.0432,-1.567196 -0.40908,-1.93294 -0.2152,-0.215143 -0.54536,-0.395679 -0.79881,-0.436809 -0.37552,-0.06094 -0.49269,-0.01453 -0.89615,0.354992 l -0.46414,0.425093 -0.0407,1.332595 -0.0407,1.332595 h -0.51732 -0.51732 l -0.0451,-1.316969 c -0.0432,-1.262517 -0.0596,-1.332079 -0.39522,-1.682438 -0.45315,-0.472987 -1.01309,-0.583205 -1.50041,-0.295336 -0.5904,0.348756 -0.73209,0.804434 -0.73209,2.354366 v 1.368748 l -0.87204,0.43248 c -1.27957,0.634592 -2.31469,1.468559 -3.17821,2.560611 -1.48793,1.88169 -2.20503,3.837479 -2.20352,6.009769 0.003,3.65577 1.92265,6.82557 5.18364,8.55737 l 1.07013,0.56831 v 1.47048 c 0,1.32001 0.0263,1.50393 0.25718,1.79742 0.47247,0.60065 1.327,0.72912 1.84144,0.27683 z"
         id="path23448" />
      <path
         style="fill:#77bc3f;fill-opacity:1;stroke-width:0.0850516"
         d="m 127.1152,116.26807 c -2.1838,-0.35952 -4.22591,-1.14532 -6.03257,-2.32129 -3.0349,-1.97544 -5.33153,-5.08908 -6.33202,-8.58461 -1.40149,-4.8965 -0.13917,-10.257775 3.34064,-14.188121 1.2681,-1.432295 2.70109,-2.49573 4.64988,-3.450746 2.52982,-1.239747 3.25863,-1.397259 6.46392,-1.397 3.23233,2.65e-4 3.98058,0.160221 6.56921,1.404356 1.59661,0.767355 2.23399,1.206547 3.44911,2.376675 2.28404,2.199468 3.40866,3.878588 4.18915,6.254636 1.14157,3.47527 1.15181,6.4112 0.0341,9.76859 -0.59584,1.78977 -1.33347,3.13833 -2.49511,4.56162 -0.80752,0.98942 -2.38057,2.50511 -3.09993,2.98691 -1.04276,0.69839 -3.57753,1.86362 -4.86724,2.23748 -1.30369,0.3779 -4.53374,0.57135 -5.86912,0.3515 z m 1.07354,-2.34678 c 0.32658,-0.3068 0.46347,-0.91309 0.46347,-2.05263 v -1.00518 h 0.55284 0.55283 l 0.002,0.65915 c 0.002,0.88737 0.13989,1.7846 0.3222,2.10068 0.22273,0.38613 0.6452,0.57357 1.20007,0.53245 0.88036,-0.0653 1.11264,-0.6112 1.11264,-2.6151 v -1.18559 l 0.70168,-0.35249 c 1.87682,-0.94282 3.21069,-2.17307 3.21069,-2.96126 0,-0.60254 -0.63048,-1.19588 -1.27075,-1.19588 -0.33507,0 -0.82612,0.24548 -1.53595,0.76781 -1.77614,1.307 -4.0128,1.80082 -5.82448,1.28596 -2.50655,-0.71234 -4.23651,-2.3865 -4.90899,-4.75063 -0.15439,-0.54275 -0.18835,-0.87816 -0.18765,-1.8534 0.001,-1.421308 0.12968,-2.016115 0.68802,-3.18079 0.66916,-1.395852 2.02009,-2.574457 3.74503,-3.267318 0.65035,-0.261226 0.68683,-0.265848 2.06539,-0.261763 2.02527,0.006 2.8678,0.266663 4.38016,1.355132 0.94985,0.68362 1.39568,0.91054 1.6794,0.854779 0.56353,-0.110752 1.17005,-0.79406 1.16951,-1.317567 -8e-4,-0.780071 -1.11969,-1.808837 -2.98033,-2.740308 -0.46567,-0.233122 -0.85242,-0.431456 -0.85944,-0.440743 -0.007,-0.0093 -0.0357,-0.712695 -0.0638,-1.563129 -0.0583,-1.767224 -0.0927,-1.862172 -0.80643,-2.229493 -0.35684,-0.183634 -0.43218,-0.194281 -0.73432,-0.103756 -0.41247,0.123579 -0.8956,0.603168 -0.96694,0.959858 -0.0291,0.145476 -0.0778,0.756658 -0.10825,1.358177 l -0.0553,1.093677 h -0.53375 -0.53375 l -0.0272,-1.312394 c -0.0314,-1.512697 -0.0833,-1.645119 -0.78155,-1.995115 -0.35889,-0.179887 -0.44263,-0.191929 -0.73192,-0.105256 -0.44,0.131828 -0.81875,0.503547 -0.9269,0.90969 -0.049,0.183843 -0.11539,0.935024 -0.14763,1.669291 l -0.0586,1.335029 -0.71582,0.343474 c -2.38178,1.14286 -4.23081,3.333478 -5.069,6.005438 -0.80862,2.577737 -0.3545,5.515237 1.22885,7.948807 0.45815,0.70417 1.91424,2.16368 2.59732,2.60342 0.28878,0.18591 0.84902,0.50773 1.24497,0.71516 l 0.71991,0.37713 0.0611,1.46603 c 0.0705,1.69315 0.13998,1.90374 0.73242,2.22111 0.47858,0.25638 1.08194,0.22512 1.3987,-0.0725 z"
         id="path23563" />
      <path
         style="fill:#ffffff;fill-opacity:1;stroke-width:0.0850516"
         d="m 127.00526,113.46081 c -0.36557,-0.3388 -0.41968,-0.59557 -0.45988,-2.18265 l -0.038,-1.49897 -0.35221,-0.1054 c -1.23892,-0.37074 -2.95152,-1.63525 -3.92965,-2.9015 -2.27416,-2.94401 -2.4726,-7.060634 -0.49494,-10.267501 0.82038,-1.330285 2.82664,-3.039234 4.12281,-3.511838 0.2792,-0.101801 0.53401,-0.227377 0.56625,-0.279059 0.0322,-0.05168 0.0821,-0.768395 0.11075,-1.592699 0.0444,-1.276696 0.077,-1.541232 0.21969,-1.785614 0.32897,-0.563277 0.96835,-0.544103 1.25284,0.03757 0.12506,0.255694 0.16826,0.593778 0.20372,1.594276 l 0.045,1.269765 h 1.00826 1.00826 v -1.058958 c 0,-1.303147 0.10608,-1.855134 0.40109,-2.087192 0.11947,-0.09397 0.31025,-0.17086 0.42396,-0.17086 0.62786,0 0.7949,0.453578 0.85512,2.321885 l 0.046,1.428843 0.79108,0.384836 c 1.17532,0.571762 2.74532,1.746777 3.02018,2.260357 0.15472,0.289086 -0.36075,0.912783 -0.75755,0.91662 -0.27347,0.0026 -0.55154,-0.156443 -1.33534,-0.763966 -0.81808,-0.63409 -1.43497,-0.95749 -2.26844,-1.189218 -2.97733,-0.82778 -5.9656,0.06881 -7.85212,2.355925 -0.57036,0.691477 -1.16802,1.870837 -1.41315,2.788583 -0.21947,0.821665 -0.2642,2.594915 -0.0858,3.402065 0.59145,2.67614 2.78305,5.02462 5.15804,5.52727 0.86498,0.18306 2.50505,0.25058 3.39963,0.13996 0.9598,-0.1187 1.90729,-0.55625 3.35383,-1.54881 l 1.00469,-0.68938 0.25846,0.13365 c 0.27861,0.14408 0.61369,0.52048 0.61369,0.68938 0,0.18764 -0.67672,0.87808 -1.38015,1.40813 -0.37947,0.28594 -1.09909,0.71411 -1.59916,0.95148 l -0.9092,0.4316 -0.0442,1.47261 c -0.0399,1.32734 -0.0641,1.51272 -0.24582,1.87914 -0.19491,0.39302 -0.21402,0.40652 -0.57516,0.40652 -0.67214,0 -0.85444,-0.46551 -0.85767,-2.19008 l -0.002,-1.08441 h -1.02062 -1.02062 l -0.003,0.82926 c -0.004,1.2375 -0.12931,2.05343 -0.352,2.29047 -0.24088,0.25641 -0.58249,0.25164 -0.86706,-0.0121 z"
         id="path23713" />
      <path
         style="fill:#ffffff;fill-opacity:1;stroke-width:0.0850516"
         d="m 127.37644,117.87011 c -6.1286,-0.91791 -11.01382,-4.59497 -13.37662,-10.06848 -0.94343,-2.18551 -1.34061,-4.11743 -1.3351,-6.4942 0.006,-2.653454 0.4986,-4.796955 1.64419,-7.156578 1.42649,-2.938197 3.29339,-5.05764 6.05078,-6.869281 1.63531,-1.074423 2.89663,-1.620957 5.14562,-2.229615 1.50488,-0.407278 5.00841,-0.489757 6.7616,-0.159181 1.0404,0.196175 2.85382,0.83067 4.08801,1.430345 4.18969,2.03571 7.16475,5.444863 8.66175,9.925585 0.4555,1.363397 0.62113,2.237546 0.73053,3.855755 0.0824,1.21876 0.001,3.15878 -0.1739,4.16753 -0.32314,1.85906 -1.48216,4.61084 -2.747,6.52202 -1.40585,2.12425 -3.83327,4.18619 -6.39187,5.42949 -1.82958,0.88904 -3.6251,1.40261 -5.78856,1.65569 -1.32329,0.15479 -2.19137,0.15238 -3.26943,-0.009 z m 4.63785,-1.17078 c 1.16569,-0.20044 2.08187,-0.49373 3.47567,-1.11268 1.52482,-0.67712 2.22572,-1.07753 3.05748,-1.74664 0.84205,-0.6774 2.72152,-2.63435 3.41159,-3.55225 1.03551,-1.37738 2.34253,-4.39441 2.58986,-5.97824 0.24619,-1.57655 0.18421,-4.915682 -0.12112,-6.525261 -0.24528,-1.292971 -0.94029,-3.061139 -1.71863,-4.37233 -0.91868,-1.5476 -3.16135,-3.945688 -4.74802,-5.07706 -0.91535,-0.652682 -2.84516,-1.618832 -3.93165,-1.96836 -1.47864,-0.475686 -2.10569,-0.54683 -4.82442,-0.547367 -2.54958,-5.29e-4 -3.13565,0.05717 -4.46514,0.439415 -0.68087,0.19576 -2.12806,0.816337 -2.95544,1.267341 -1.65943,0.904554 -3.83764,2.862905 -5.19293,4.668771 -1.87175,2.494026 -2.91176,5.774494 -2.90674,9.168661 0.004,2.53173 0.50138,4.65615 1.61772,6.90608 0.73787,1.48714 1.47613,2.52795 2.67572,3.77227 2.61206,2.70945 5.7606,4.34391 9.20046,4.77611 0.87694,0.11019 3.94256,0.0351 4.83559,-0.11846 z"
         id="path23900" />
      <path
         style="fill:#ffffff;fill-opacity:1;stroke-width:0.0850516"
         d="m 126.41812,122.08292 c -2.97979,-0.26136 -7.20347,-2.08231 -10.14091,-4.37203 -0.86959,-0.67785 -2.60737,-2.47615 -3.49844,-3.62029 -1.07331,-1.37813 -1.61146,-2.22661 -2.28957,-3.60985 -3.27862,-6.68791 -2.76078,-14.544883 1.36778,-20.752577 3.49145,-5.24972 8.8804,-8.551392 15.14785,-9.280702 0.87612,-0.10195 1.61723,-0.125918 2.88063,-0.09317 1.85516,0.04809 3.01829,0.21136 4.70561,0.660546 8.11099,2.159248 14.33704,9.386384 15.4196,17.898893 0.15185,1.19407 0.12666,3.77777 -0.0481,4.93299 -0.73328,4.84732 -2.82071,9.03605 -6.16782,12.3766 -3.03538,3.02942 -6.77913,4.99631 -10.93248,5.74368 -0.9235,0.16618 -5.02911,0.24003 -6.44415,0.11591 z m 4.48796,-1.52551 c 2.39312,-0.26765 4.93086,-0.92671 6.54897,-1.7008 3.72158,-1.78039 7.0959,-5.10321 8.96534,-8.82851 1.41209,-2.81392 2.05636,-5.5048 2.06159,-8.6105 0.004,-2.129116 -0.19517,-3.595789 -0.75422,-5.565715 -2.05159,-7.229218 -8.55704,-12.857165 -15.84359,-13.706472 -1.60584,-0.187174 -4.90856,-0.12047 -6.29381,0.127116 -4.33967,0.775634 -8.64505,3.407508 -11.4586,7.00463 -2.1485,2.746846 -3.45928,5.758809 -3.99151,9.171828 -0.18495,1.186006 -0.20973,4.147483 -0.0444,5.312693 0.51196,3.60929 1.94493,6.96104 4.15575,9.72037 3.00672,3.7527 7.47831,6.29925 12.18932,6.94179 0.53795,0.0734 1.07378,0.1478 1.19073,0.1654 0.46109,0.0694 2.55097,0.0491 3.27448,-0.0318 z"
         id="path23939" />
      <path
         style="fill:#ffffff;fill-opacity:1;stroke-width:0.0850516"
         d="m 45.89706,120.81451 v -1.53092 h 27.726805 27.726805 v 1.53092 1.53093 H 73.623865 45.89706 Z"
         id="path23978" />
      <path
         style="fill:#ffffff;fill-opacity:1;stroke-width:0.0850516"
         d="m 156.97438,120.34673 v -1.65851 h 27.81185 27.81186 v 1.65851 1.65851 h -27.81186 -27.81185 z"
         id="path24017" />
      <path
         style="fill:#ffffff;fill-opacity:1;stroke-width:0.0850516"
         d="m 80.959559,148.11341 c -0.246861,-0.0992 -0.246282,-0.12415 0.05956,-2.55403 0.138009,-1.09647 0.425386,-3.48623 0.638614,-5.31059 0.641011,-5.48445 0.847468,-6.84487 1.119134,-7.37441 0.139103,-0.27113 0.609219,-0.39733 0.932112,-0.25021 0.183568,0.0836 0.206068,0.14762 0.205629,0.58478 -2.65e-4,0.26998 -0.153144,1.75389 -0.339715,3.29757 -0.186571,1.54369 -0.339442,2.89282 -0.339712,2.99807 -5.29e-4,0.18134 0.03264,0.19137 0.631857,0.19137 0.347792,0 0.733835,-0.0386 0.857877,-0.0858 0.486492,-0.18496 1.37174,-0.98655 3.740441,-3.38696 2.310038,-2.34096 3.67506,-3.58657 3.930401,-3.58657 0.410229,0 -0.299468,0.96801 -2.525405,3.44458 -2.102702,2.33947 -3.148552,3.66062 -3.148552,3.97735 0,0.27643 0.852302,1.75842 2.55507,4.44276 2.050325,3.23225 2.246821,3.67326 1.623423,3.64355 -0.511038,-0.0243 -1.336911,-0.99173 -3.074257,-3.60103 -1.690693,-2.53922 -2.556317,-3.55128 -3.200959,-3.74246 -0.179985,-0.0534 -0.533873,-0.0847 -0.786418,-0.0697 -0.784125,0.0467 -0.877205,0.32055 -1.238004,3.64205 -0.364728,3.35767 -0.432636,3.66646 -0.829702,3.77282 -0.267178,0.0716 -0.582866,0.0587 -0.811395,-0.0332 z"
         id="path24056" />
      <path
         style="fill:#ffffff;fill-opacity:1;stroke-width:0.0850516"
         d="m 94.151422,148.32707 c -0.07297,-0.19016 0.0016,-0.91641 0.664843,-6.48356 l 0.52951,-4.44395 0.642266,-4e-5 0.642265,-5e-5 -0.02965,1.1501 c -0.03095,1.20041 0.0073,1.50046 0.170381,1.33736 0.05095,-0.051 0.140994,-0.0741 0.200105,-0.0514 0.05911,0.0227 0.312793,-0.20038 0.563734,-0.49569 0.790522,-0.93031 1.41282,-1.49099 1.956208,-1.76253 0.529096,-0.26439 1.092946,-0.3417 1.342076,-0.18401 0.23439,0.14837 0.0426,1.32169 -0.22859,1.39837 -0.0808,0.0229 -0.43399,0.0659 -0.784829,0.0956 -0.810085,0.0686 -1.569873,0.41706 -2.002933,0.91858 -0.679288,0.78667 -1.297453,2.42893 -1.607375,4.27027 -0.07086,0.42101 -0.221602,1.54325 -0.334979,2.49388 -0.113376,0.95064 -0.220964,1.74325 -0.23908,1.76136 -0.01812,0.0181 -0.346178,0.0591 -0.729025,0.091 -0.623453,0.052 -0.702228,0.0421 -0.754925,-0.0953 z"
         id="path24095" />
      <path
         style="fill:#ffffff;fill-opacity:1;stroke-width:0.0850516"
         d="m 102.62644,152.38972 c 0,-0.0197 0.30724,-0.58605 0.68276,-1.25853 0.37552,-0.67249 0.88857,-1.62409 1.1401,-2.11469 0.43322,-0.84492 0.45305,-0.91129 0.3759,-1.25769 -0.12969,-0.58228 -1.64786,-6.21774 -2.24732,-8.34207 -0.30074,-1.06575 -0.5468,-1.97474 -0.5468,-2.01998 0,-0.093 0.71638,-0.10904 1.29979,-0.0291 l 0.38797,0.0532 0.6109,2.4771 c 0.64755,2.62572 1.25593,4.83104 1.48204,5.3722 0.13513,0.3234 0.13854,0.32525 0.29981,0.16189 0.27615,-0.27972 1.05923,-1.7326 2.69056,-4.9919 l 1.56443,-3.12565 h 0.72271 c 0.39749,0 0.72272,0.0134 0.72272,0.0297 0,0.0581 -7.6661,14.89785 -7.72363,14.95114 -0.0654,0.0606 -1.46194,0.15078 -1.46194,0.0944 z"
         id="path24134" />
      <path
         style="fill:#ffffff;fill-opacity:1;stroke-width:0.0850516"
         d="m 112.26991,152.1481 c 0.0679,-0.43268 1.75344,-14.51216 1.75344,-14.64623 0,-0.0706 0.19762,-0.10231 0.63788,-0.10231 h 0.63789 v 1.1503 1.15031 l 0.22652,0.0861 c 0.21464,0.0816 0.27815,0.033 1.21198,-0.92784 0.84928,-0.87384 1.07886,-1.0594 1.66127,-1.34274 0.58774,-0.28594 0.76854,-0.33271 1.38761,-0.35899 0.65764,-0.0279 0.75311,-0.01 1.25433,0.23686 0.77393,0.381 1.2449,1.03001 1.5202,2.09485 0.64794,2.5062 -0.42247,6.01421 -2.40613,7.88548 -1.18962,1.12224 -2.49153,1.49715 -3.80659,1.0962 -0.31977,-0.0975 -0.79191,-0.31175 -1.04919,-0.47611 -0.52281,-0.334 -0.73183,-0.37431 -0.80041,-0.15436 -0.0787,0.25253 -0.36972,2.0648 -0.52683,3.28107 -0.11087,0.85824 -0.18281,1.1693 -0.27898,1.2062 -0.0713,0.0274 -0.43233,0.0731 -0.80234,0.10161 l -0.67276,0.0519 z m 5.50153,-4.76249 c 1.17005,-0.34214 2.05726,-1.279 2.69109,-2.84172 0.46705,-1.15151 0.57784,-1.77429 0.57499,-3.23196 -0.002,-1.16346 -0.025,-1.37444 -0.19337,-1.79635 -0.76115,-1.90728 -3.01368,-1.60286 -4.48194,0.60571 -0.87102,1.3102 -1.31102,2.61774 -1.61706,4.80534 l -0.20228,1.44587 0.27181,0.24209 c 0.96657,0.86086 1.8562,1.09285 2.95676,0.77102 z"
         id="path24173" />
      <path
         style="fill:#ffffff;fill-opacity:1;stroke-width:0.0850516"
         d="m 126.79204,148.48155 c -0.49424,-0.17466 -0.98031,-0.6866 -1.11765,-1.17712 -0.15879,-0.56715 -0.064,-2.19068 0.29404,-5.03481 0.31941,-2.53741 0.36822,-3.40933 0.20028,-3.57727 -0.059,-0.059 -0.34167,-0.10207 -0.67,-0.10207 -0.65991,0 -0.81216,-0.10392 -0.67618,-0.46155 0.0971,-0.2555 0.37979,-0.396 1.22253,-0.60769 0.53786,-0.13511 0.56869,-0.15664 0.64507,-0.45063 0.0441,-0.1698 0.2402,-0.94024 0.43572,-1.71208 0.482,-1.90273 0.46312,-1.87161 1.21679,-2.0054 l 0.32832,-0.0583 -0.05,0.33017 c -0.0275,0.18159 -0.12867,1.01908 -0.22488,1.86109 -0.0962,0.84201 -0.19581,1.63618 -0.22133,1.76482 l -0.0464,0.23389 h 1.49516 1.49516 v 0.55284 0.55283 l -1.21199,0.005 c -0.66659,0.003 -1.36485,0.032 -1.5517,0.0651 l -0.33972,0.0603 -0.27369,2.20998 c -0.64896,5.24022 -0.64974,6.00687 -0.007,6.45739 0.28285,0.19811 0.89009,0.16346 1.41463,-0.0807 0.25023,-0.11649 0.48845,-0.2118 0.52938,-0.2118 0.1036,0 0.33395,0.46543 0.33395,0.67476 0,0.12084 -0.12162,0.23448 -0.404,0.37747 -0.93819,0.47508 -2.04594,0.60638 -2.817,0.33388 z"
         id="path24212" />
      <path
         style="fill:#ffffff;fill-opacity:1;stroke-width:0.0850516"
         d="m 135.36661,148.46603 c -1.46031,-0.46732 -2.43743,-1.54051 -2.71957,-2.98694 -0.1398,-0.71667 -0.11428,-2.92451 0.0405,-3.50746 0.16365,-0.61626 0.72133,-1.73653 1.20109,-2.41277 1.21392,-1.71107 3.19463,-2.70614 4.83147,-2.42723 2.0939,0.35678 3.32331,1.91532 3.4317,4.35041 0.14649,3.29111 -1.77746,6.31901 -4.4539,7.00951 -0.68821,0.17755 -1.73247,0.16612 -2.33132,-0.0255 z m 2.58312,-1.27808 c 1.0754,-0.51324 1.85807,-1.55085 2.28601,-3.03062 0.17395,-0.6015 0.19547,-0.8559 0.19396,-2.29256 -0.002,-1.49494 -0.0166,-1.65344 -0.20141,-2.11615 -0.25796,-0.64604 -0.66534,-1.09042 -1.21732,-1.32787 -0.62447,-0.26864 -1.69764,-0.21762 -2.33829,0.11117 -0.58682,0.30116 -1.2714,1.01645 -1.65721,1.73155 -0.87268,1.61752 -1.13384,4.26837 -0.56919,5.77752 0.50375,1.34642 2.03509,1.84774 3.50345,1.14696 z"
         id="path24251" />
      <path
         style="fill:#ffffff;fill-opacity:1;stroke-width:0.0850516"
         d="m 144.24529,148.2649 c 0.0259,-0.10525 0.20439,-1.51179 0.39664,-3.12565 0.92508,-7.76538 0.92442,-7.76129 1.26901,-7.81085 0.10952,-0.0157 0.32667,-0.005 0.48257,0.0245 0.23771,0.0446 0.29759,0.10411 0.37111,0.36884 0.0482,0.17362 0.0901,0.50704 0.0931,0.74093 0.0178,1.40837 0.19974,1.451 1.33675,0.31319 0.69446,-0.69494 0.97139,-0.90771 1.55899,-1.19781 0.39299,-0.19402 0.9262,-0.38674 1.18492,-0.42826 1.04888,-0.16832 2.14318,0.30074 2.54218,1.08969 0.50771,1.00386 0.47548,2.64918 -0.15847,8.09046 -0.26442,2.26951 -0.15536,2.01691 -0.90091,2.08678 -0.79048,0.0741 -0.89005,0.009 -0.89005,-0.57797 0,-0.23461 0.13252,-1.55991 0.2945,-2.94513 0.60453,-5.17003 0.5929,-5.62484 -0.16076,-6.28655 -1.01702,-0.89296 -2.79772,-0.10499 -4.04653,1.79061 -0.86742,1.31668 -1.04216,1.98656 -1.44764,5.54952 -0.14906,1.3098 -0.28835,2.41015 -0.30954,2.44523 -0.0212,0.0351 -0.40401,0.0638 -0.85071,0.0638 -0.79953,0 -0.81146,-0.003 -0.76511,-0.19137 z"
         id="path24290" />
      <path
         style="fill:#ffffff;fill-opacity:1;stroke-width:0.0850516"
         d="m 156.50045,148.40498 c -0.1003,-0.0416 0.10981,-2.02241 0.80566,-7.59503 0.34771,-2.78457 0.43096,-3.28306 0.56462,-3.3808 0.1751,-0.12803 1.11846,-0.15572 1.30386,-0.0383 0.13323,0.0844 0.18381,-0.45319 -0.58898,6.25996 -0.28002,2.43248 -0.52819,4.5088 -0.55149,4.61405 -0.0399,0.18022 -0.0831,0.19097 -0.74242,0.18465 -0.38503,-0.004 -0.74109,-0.0238 -0.79125,-0.0446 z"
         id="path24329" />
      <path
         style="fill:#ffffff;fill-opacity:1;stroke-width:0.0850516"
         d="m 158.45387,134.2611 c -0.14524,-0.0886 -0.34617,-0.29387 -0.44652,-0.45624 -0.3329,-0.53865 -0.2044,-1.07737 0.37923,-1.5898 0.26469,-0.2324 0.36226,-0.26914 0.6087,-0.22914 0.61594,0.1 1.04009,0.60091 1.04064,1.22908 5.2e-4,0.48952 -0.1688,0.78788 -0.57703,1.01731 -0.41351,0.23241 -0.65955,0.23945 -1.00502,0.0288 z"
         id="path24368" />
      <path
         style="fill:#ffffff;fill-opacity:1;stroke-width:0.0850516"
         d="m 163.71377,148.51759 c -0.448,-0.17015 -0.87743,-0.56601 -1.07084,-0.98713 -0.26054,-0.56726 -0.22243,-1.86388 0.14529,-4.94275 0.16482,-1.37996 0.32552,-2.8049 0.35713,-3.16654 0.0574,-0.65652 0.0571,-0.65764 -0.17054,-0.7442 -0.1254,-0.0477 -0.40922,-0.0867 -0.63071,-0.0867 -0.46137,0 -0.60683,-0.10554 -0.60683,-0.4403 0,-0.30799 0.23529,-0.45188 0.93208,-0.57 0.31108,-0.0527 0.61615,-0.15992 0.70336,-0.24713 0.16629,-0.16629 0.34808,-0.77032 0.7017,-2.33153 0.26434,-1.16708 0.46433,-1.52213 0.92153,-1.63607 0.44345,-0.11052 0.5883,0.0398 0.48637,0.50467 -0.0713,0.32503 -0.34298,3.03344 -0.34298,3.41876 0,0.1807 0.0287,0.18504 1.39649,0.21147 0.76807,0.0148 1.42159,0.0522 1.45226,0.083 0.0307,0.0308 0.0298,0.22938 -0.002,0.4413 -0.0754,0.5027 -0.20421,0.5463 -1.83094,0.61971 l -1.26441,0.0571 -0.049,0.34854 c -0.24712,1.7591 -0.65702,5.59782 -0.69748,6.53195 -0.0564,1.30148 -0.0125,1.45365 0.51063,1.77265 0.3701,0.22566 0.86025,0.2075 1.41902,-0.0526 l 0.46681,-0.21728 0.1541,0.19031 c 0.0932,0.11512 0.14401,0.2937 0.12855,0.45201 -0.0225,0.23027 -0.0962,0.29714 -0.61392,0.55694 -0.53239,0.26716 -0.66589,0.29734 -1.40335,0.31722 -0.49577,0.0134 -0.92362,-0.0193 -1.09234,-0.0834 z"
         id="path24407" />
      <path
         style="fill:#ffffff;fill-opacity:1;stroke-width:0.0850516"
         d="m 172.21992,148.49495 c -1.06829,-0.28766 -1.87548,-0.9618 -2.39537,-2.00051 -0.59149,-1.18177 -0.6677,-2.65838 -0.22572,-4.37379 0.77294,-2.99993 2.90258,-4.96436 5.4073,-4.98782 1.45598,-0.0137 2.56663,0.6382 3.10777,1.82393 0.25054,0.54899 0.24227,0.75523 -0.063,1.57121 -0.241,0.64413 -0.9717,1.36078 -1.78489,1.7506 -0.81573,0.39102 -1.5568,0.59165 -3.50514,0.94894 -0.88361,0.16204 -1.66269,0.34119 -1.73128,0.39812 -0.0987,0.0819 -0.11806,0.28272 -0.0929,0.96232 0.0283,0.76315 0.0628,0.92185 0.31024,1.42444 0.48742,0.99008 1.33867,1.51033 2.46457,1.50623 1.02403,-0.004 1.86966,-0.31316 2.88722,-1.05647 0.29163,-0.21303 0.58109,-0.38733 0.64324,-0.38733 0.13852,0 0.57009,0.43839 0.57009,0.57911 0,0.14445 -1.20503,1.01962 -1.92272,1.39641 -0.33211,0.17436 -0.84867,0.37473 -1.14791,0.44527 -0.67571,0.15928 -1.92872,0.15895 -2.52146,-8e-4 z m 0.69539,-6.21518 c 1.7502,-0.24031 3.20487,-0.86927 3.69211,-1.59637 0.41766,-0.62328 0.29272,-1.49045 -0.28822,-2.00052 -0.93745,-0.82309 -2.90655,-0.42033 -3.88233,0.79409 -0.64927,0.80806 -1.34394,2.29357 -1.34394,2.87395 0,0.17643 0.0267,0.17539 1.82238,-0.0711 z"
         id="path24446" />
    </g>
  </g>
</svg>
