<?xml version="1.0" encoding="UTF-8" standalone="no"?>
<!-- Created with Inkscape (http://www.inkscape.org/) -->

<svg
   width="210mm"
   height="297mm"
   viewBox="0 0 210 297"
   version="1.1"
   id="svg5"
   inkscape:version="1.1 (c68e22c387, 2021-05-23)"
   sodipodi:docname="Kryptonite.svg"
   xmlns:inkscape="http://www.inkscape.org/namespaces/inkscape"
   xmlns:sodipodi="http://sodipodi.sourceforge.net/DTD/sodipodi-0.dtd"
   xmlns="http://www.w3.org/2000/svg"
   xmlns:svg="http://www.w3.org/2000/svg">
  <sodipodi:namedview
     id="namedview7"
     pagecolor="#ffffff"
     bordercolor="#666666"
     borderopacity="1.0"
     inkscape:pageshadow="2"
     inkscape:pageopacity="0.0"
     inkscape:pagecheckerboard="0"
     inkscape:document-units="mm"
     showgrid="false"
     inkscape:lockguides="false"
     inkscape:zoom="0.77771465"
     inkscape:cx="328.52667"
     inkscape:cy="561.25984"
     inkscape:window-width="2106"
     inkscape:window-height="1081"
     inkscape:window-x="359"
     inkscape:window-y="158"
     inkscape:window-maximized="0"
     inkscape:current-layer="layer1" />
  <defs
     id="defs2" />
  <g
     inkscape:label="Layer 1"
     inkscape:groupmode="layer"
     id="layer1">
    <path
       style="fill:#000000;stroke-width:0.197071"
       d="m 77.286949,165.27862 c 0,-0.1605 0.520572,-1.23934 1.156826,-2.39743 l 1.156827,-2.10562 -0.540456,-1.99656 c -1.783718,-6.5894 -2.24518,-8.20407 -2.322468,-8.12647 -0.04747,0.0477 -0.146094,0.38 -0.219166,0.73851 -0.127016,0.62319 -0.173643,0.65259 -1.060708,0.66884 -1.189235,0.0218 -1.714479,0.31399 -2.359194,1.31244 -0.778166,1.20511 -1.086559,2.33843 -1.466086,5.38773 l -0.343765,2.76197 -1.204739,0.0581 c -0.852234,0.0411 -1.23015,-0.0166 -1.291587,-0.19748 -0.08366,-0.24625 1.150164,-11.05811 1.319368,-11.5615 0.10723,-0.31901 1.70697,-0.32683 2.022605,-0.01 0.129797,0.13033 0.235994,0.59492 0.235994,1.0324 v 0.79543 l 0.583166,-0.71043 c 0.32074,-0.39074 0.887226,-0.85532 1.258858,-1.0324 0.76981,-0.36683 2.003378,-0.42698 2.200137,-0.10729 0.09515,0.1546 0.191975,0.1546 0.345932,0 0.300153,-0.3014 2.203038,-0.27182 2.459295,0.0382 0.114974,0.13911 0.629535,1.93867 1.143469,3.99902 l 0.934428,3.74607 1.749408,-3.65342 c 0.962174,-2.00937 1.888132,-3.80893 2.057682,-3.99901 0.21989,-0.24651 0.606322,-0.34559 1.347829,-0.34559 0.571755,0 1.084867,0.0736 1.140254,0.16361 0.109332,0.17765 -7.413999,14.9199 -7.903316,15.48685 -0.395188,0.45789 -2.400593,0.50282 -2.400593,0.0538 z m 3.782761,-3.5591 c 0.952273,-1.84646 2.704617,-5.24562 3.894093,-7.5537 l 2.162688,-4.19649 H 86.337517 85.548541 L 83.4749,154.1303 c -1.207918,2.42381 -2.169701,4.12882 -2.303728,4.08396 -0.126548,-0.0423 -0.680838,-1.89258 -1.231753,-4.11161 l -1.001666,-4.03458 -0.916242,-0.0599 -0.916242,-0.0599 0.274526,0.94855 c 0.720426,2.48924 2.660422,9.68966 2.660422,9.87433 0,0.1147 -0.527658,1.15753 -1.172574,2.3174 l -1.172575,2.10885 0.821618,-0.0604 0.821617,-0.0604 z m -9.849607,-3.32683 c 0.562467,-4.73718 1.697507,-6.71129 3.882431,-6.75253 0.856011,-0.0161 0.900992,-0.0463 1.032281,-0.69087 0.169267,-0.83107 0.08517,-0.97996 -0.553487,-0.97996 -0.800487,0 -1.872817,0.72765 -2.670107,1.81185 -0.405616,0.55158 -0.738838,0.88055 -0.740493,0.73103 -0.0024,-0.21488 -0.04394,-0.20978 -0.198393,0.0244 -0.136832,0.20745 -0.180129,-0.11804 -0.144486,-1.08616 l 0.05089,-1.38237 h -0.685745 -0.685743 l -0.631341,5.23328 c -0.347236,2.8783 -0.636011,5.3939 -0.641724,5.59022 -0.0087,0.29907 0.125137,0.3471 0.825431,0.29622 l 0.835813,-0.0607 z m 15.797546,6.93087 c -0.04953,-0.13577 0.329364,-3.71266 0.841984,-7.94865 l 0.93204,-7.70181 0.850347,-0.0614 c 1.080429,-0.0781 1.411266,0.20252 1.411266,1.19691 v 0.79091 l 0.896855,-0.83015 c 1.106536,-1.02422 1.952165,-1.39246 3.197647,-1.39246 3.008759,0 4.236319,3.80462 2.61242,8.09676 -0.961463,2.54126 -3.091864,4.34462 -5.132509,4.34462 -0.681139,0 -1.369617,-0.1391 -1.813639,-0.36642 -0.842421,-0.43128 -0.815934,-0.47788 -1.050178,1.84753 -0.219855,2.18257 -0.28077,2.27104 -1.563498,2.27104 -0.69501,0 -1.125455,-0.0898 -1.182735,-0.24685 z m 2.075248,-0.39496 c 0.01809,-0.71663 0.567865,-4.34511 0.674597,-4.45228 0.06858,-0.0689 0.275311,-0.0155 0.459411,0.11863 2.407037,1.75345 5.224665,0.59106 6.847918,-2.82508 1.435147,-3.02026 1.169554,-6.54369 -0.573716,-7.61105 -1.411208,-0.86406 -3.349361,-0.23475 -4.80867,1.56135 -0.459697,0.56579 -0.835813,0.93126 -0.835813,0.81217 0,-0.11909 -0.08788,-0.162 -0.195295,-0.0953 -0.123181,0.0765 -0.177645,-0.33853 -0.147497,-1.12386 l 0.0478,-1.24507 h -0.678153 -0.678153 l -0.82153,6.81313 c -0.451843,3.74722 -0.85901,7.14639 -0.904819,7.5537 l -0.08329,0.74055 h 0.845488 c 0.541961,0 0.847725,-0.0886 0.85172,-0.24685 z m 2.248389,-4.81458 c -0.220175,-0.0492 -0.656436,-0.29455 -0.969467,-0.54519 l -0.569148,-0.45572 0.227068,-1.85651 c 0.482544,-3.94529 2.911297,-6.92086 4.998579,-6.12396 1.50294,0.5738 1.678008,3.96147 0.34521,6.68006 -0.884937,1.80506 -2.395474,2.66717 -4.032242,2.30132 z m 1.616651,-0.48063 c 1.545875,-0.58651 2.628167,-2.55309 2.764495,-5.02324 0.09766,-1.7695 -0.100144,-2.49738 -0.804637,-2.96091 -1.546044,-1.01723 -3.966055,2.0053 -4.422069,5.52304 -0.22684,1.74988 -0.15305,1.9574 0.852476,2.39746 0.731053,0.31994 0.915052,0.32722 1.609735,0.0637 z m 8.616763,1.99817 c -0.60876,-0.25019 -1.10082,-0.89916 -1.2772,-1.68447 -0.13917,-0.61965 0.26918,-5.07836 0.69114,-7.54629 0.10399,-0.60821 0.0825,-0.63159 -0.63647,-0.69119 -0.726435,-0.0602 -0.744089,-0.0804 -0.744089,-0.84971 0,-0.78072 0.0084,-0.78957 0.904039,-0.95389 l 0.90404,-0.16584 0.3408,-1.61339 c 0.451,-2.13514 0.69722,-2.50206 1.67896,-2.50206 0.42378,0 0.81321,0.0694 0.8654,0.15418 0.0522,0.0848 -0.0153,1.0179 -0.15002,2.07356 l -0.24491,1.91938 h 1.41889 c 1.56046,0 1.64522,0.0683 1.47068,1.1849 l -0.10805,0.69118 -1.4994,0.0573 -1.49941,0.0572 -0.21868,1.7201 c -0.68992,5.42674 -0.71,5.76017 -0.36766,6.10393 0.29997,0.30123 0.38245,0.29788 1.14259,-0.0463 l 0.81928,-0.37099 0.37847,0.46933 c 0.57209,0.70945 0.38844,1.22687 -0.61598,1.73548 -0.9038,0.45766 -2.46488,0.58132 -3.25242,0.25764 z m 2.99923,-0.59797 c 0.78713,-0.35878 0.82286,-0.4099 0.61174,-0.87517 -0.21295,-0.46935 -0.25195,-0.47974 -0.77702,-0.20708 -1.23062,0.63903 -1.94909,0.1754 -1.94875,-1.25753 1.2e-4,-0.50817 0.17702,-2.30138 0.3931,-3.98491 0.21609,-1.68354 0.39298,-3.12762 0.3931,-3.20908 1.3e-4,-0.0815 0.70821,-0.14812 1.57352,-0.14812 h 1.5733 v -0.59244 -0.59245 h -1.5003 -1.5003 l 0.12003,-0.93804 c 0.066,-0.51592 0.17895,-1.45619 0.25094,-2.08949 l 0.1309,-1.15144 -0.56976,0.0653 c -0.5473,0.0627 -0.5892,0.14314 -1.06289,2.04011 l -0.49314,1.97482 -0.8835,0.21323 c -0.67309,0.16246 -0.898461,0.3153 -0.946339,0.64182 -0.05571,0.37992 0.02803,0.42859 0.737479,0.42859 0.96643,0 0.94306,-0.22679 0.407,3.94964 -0.45598,3.55264 -0.47717,4.46367 -0.11888,5.1128 0.57073,1.034 2.11782,1.29948 3.60977,0.61944 z m 5.55557,0.64838 c -0.77694,-0.27682 -1.84637,-1.20767 -2.32321,-2.02216 -0.48432,-0.82726 -0.52787,-1.07545 -0.52215,-2.97609 0.008,-2.51385 0.44415,-3.81651 1.77866,-5.30698 1.22365,-1.36669 2.55664,-1.99986 4.21022,-1.99986 3.26912,0 5.12408,2.56458 4.55134,6.29246 -0.56055,3.64842 -3.07209,6.16399 -6.12157,6.13139 -0.70306,-0.008 -1.41105,-0.061 -1.57329,-0.11876 z m 3.63824,-0.72332 c 4.0644,-1.90461 5.03128,-8.85076 1.4932,-10.72714 -2.44507,-1.29671 -5.49362,0.12585 -6.96075,3.24811 -0.55574,1.1827 -0.6243,1.52251 -0.6265,3.10536 -0.003,1.9132 0.32882,2.87443 1.30727,3.7909 1.19078,1.11536 3.14304,1.35304 4.78678,0.58277 z m -3.00752,-1.01822 c -1.02617,-0.4477 -1.49422,-1.72731 -1.36899,-3.74277 0.2127,-3.42368 2.1363,-5.65795 4.43477,-5.15102 1.25075,0.27586 1.85989,1.44683 1.84379,3.54435 -0.0199,2.58659 -0.90491,4.48093 -2.44282,5.22852 -0.99954,0.48588 -1.56647,0.51367 -2.46675,0.12092 z m 1.99054,-0.36637 c 1.41371,-0.59315 2.28108,-2.2201 2.43582,-4.56894 0.13311,-2.02051 -0.20091,-2.94143 -1.22229,-3.36997 -2.14936,-0.90181 -4.10166,1.50998 -4.11777,5.08694 -0.007,1.64879 0.31599,2.37139 1.28524,2.87158 0.60532,0.31238 0.83435,0.30961 1.619,-0.0196 z m 25.45334,1.89766 c -0.65476,-0.40767 -1.132,-1.35673 -1.13169,-2.25058 1.2e-4,-0.36373 0.17701,-2.03878 0.3931,-3.72231 0.51281,-3.9954 0.5317,-3.75216 -0.29125,-3.75216 -0.55912,0 -0.70634,-0.0871 -0.80337,-0.47532 -0.18607,-0.74445 0.20555,-1.24993 1.08385,-1.39894 0.84948,-0.14412 0.81705,-0.09 1.2802,-2.1383 0.44881,-1.98498 0.56621,-2.14227 1.54564,-2.07075 0.79958,0.0584 0.82301,0.0799 0.81727,0.75129 -0.003,0.38015 -0.0717,1.28711 -0.15209,2.01545 l -0.14617,1.32426 1.43039,0.0581 c 1.39113,0.0565 1.43206,0.0728 1.49167,0.59143 0.12341,1.0738 -0.22434,1.34277 -1.73609,1.34277 -1.25645,0 -1.37382,0.0356 -1.46384,0.44433 -0.22374,1.01576 -0.83039,6.76377 -0.74746,7.0822 0.1331,0.51112 0.61128,0.61414 1.28469,0.2768 0.85139,-0.42651 1.07584,-0.37767 1.43062,0.31126 0.41033,0.7968 0.29711,1.03074 -0.74374,1.53671 -1.07417,0.52217 -2.76496,0.55737 -3.54173,0.0738 z m 3.07863,-0.3245 c 0.81551,-0.34217 0.97949,-0.59315 0.71355,-1.09214 -0.19553,-0.36688 -0.23856,-0.37096 -0.75763,-0.0718 -0.69818,0.40237 -1.54865,0.21113 -1.8313,-0.41179 -0.1545,-0.34051 -0.0895,-1.44481 0.25252,-4.28979 l 0.46057,-3.83125 1.52413,-0.0577 c 1.13489,-0.0429 1.52413,-0.12708 1.52413,-0.32944 0,-0.14947 0.0537,-0.41233 0.11938,-0.58414 0.10252,-0.26829 -0.0958,-0.31238 -1.40491,-0.31238 h -1.52428 l 0.13525,-1.62922 c 0.0744,-0.89608 0.18521,-1.82918 0.24626,-2.07357 0.0928,-0.37152 0.0309,-0.44433 -0.3779,-0.44433 -0.63854,0 -0.82889,0.26853 -1.1199,1.57986 -0.59108,2.66343 -0.51759,2.53109 -1.48662,2.67701 -0.75999,0.11444 -0.88045,0.19707 -0.88045,0.60386 0,0.40542 0.0946,0.47129 0.6767,0.47129 0.3722,0 0.71918,0.069 0.77107,0.15331 0.0519,0.0843 -0.12295,1.83946 -0.38857,3.90028 -0.53534,4.15346 -0.47729,4.88235 0.44701,5.61244 0.61071,0.48238 1.92054,0.54085 2.90099,0.12948 z m 5.32756,0.35564 c -2.13863,-1.17436 -3.01927,-3.4026 -2.46792,-6.24444 0.48056,-2.47693 2.07214,-4.65962 4.00732,-5.49558 1.44496,-0.6242 3.52188,-0.50107 4.52643,0.26834 1.24924,0.9568 1.60992,2.18983 1.04074,3.55776 -0.56569,1.35954 -2.29679,2.26073 -5.37965,2.80057 -0.93341,0.16345 -1.72888,0.32909 -1.7677,0.36807 -0.0388,0.039 -0.0108,0.44647 0.0623,0.90551 0.35957,2.25798 2.50949,2.79263 4.74554,1.18012 0.98879,-0.71306 1.52853,-0.69143 1.98266,0.0795 0.32949,0.55932 0.32865,0.56162 -0.45655,1.25253 -1.34404,1.18263 -2.17421,1.50881 -4.03157,1.58397 -1.27624,0.0517 -1.81117,-0.009 -2.26161,-0.25631 z m 3.83123,-0.37449 c 0.45784,-0.1622 1.27244,-0.61926 1.81023,-1.01569 0.97482,-0.71856 0.97662,-0.72196 0.58805,-1.11214 -0.38856,-0.39019 -0.39191,-0.38972 -1.09679,0.15015 -2.68746,2.05838 -5.60431,1.01326 -5.62006,-2.01369 -0.004,-0.78473 0.0308,-0.83613 0.63484,-0.93556 2.57035,-0.4231 3.28071,-0.57954 4.20017,-0.92498 1.32315,-0.49712 2.13676,-1.26018 2.44491,-2.29299 0.21405,-0.71741 0.19695,-0.90136 -0.14584,-1.56786 -1.14482,-2.22603 -4.74793,-2.17629 -6.78572,0.0937 -0.98445,1.09661 -1.50649,2.18183 -1.85349,3.85297 -0.72323,3.48305 0.96092,6.04368 3.98353,6.05669 0.55426,0.002 1.38234,-0.12838 1.84017,-0.29059 z m -4.01401,-6.53798 c 0.24898,-1.0602 1.15545,-2.50143 1.87332,-2.97847 1.75284,-1.16481 3.71766,-0.62275 3.71766,1.02562 0,1.17845 -1.8033,2.14554 -4.4852,2.40536 l -1.24028,0.12016 z m 3.23104,-0.41793 c 1.501,-0.49113 1.80076,-0.76753 1.73196,-1.59699 -0.16958,-2.04424 -3.1947,-1.18377 -4.18027,1.18905 -0.16772,0.40382 -0.30495,0.78695 -0.30495,0.8514 0,0.17083 1.72494,-0.107 2.75326,-0.44346 z m -94.39774,6.97802 c 0,-0.51608 1.682702,-14.77441 1.873063,-15.87135 l 0.11138,-0.64182 h 1.257785 c 0.69178,0 1.299702,0.0681 1.350934,0.15135 0.05123,0.0832 -0.10431,1.72728 -0.345649,3.65342 -0.583813,4.65944 -0.560827,4.66079 3.423231,0.20084 3.759404,-4.20845 3.505928,-4.00561 5.005448,-4.00561 0.694977,0 1.317274,0.0872 1.382884,0.19382 0.06561,0.1066 -1.437723,1.89801 -3.340739,3.98091 -1.903018,2.08289 -3.42185,3.887 -3.375186,4.00911 0.04666,0.12211 1.246088,2.07061 2.665385,4.33 1.419295,2.25938 2.530457,4.18934 2.469247,4.28879 -0.131912,0.21434 -2.450294,0.23925 -2.762547,0.0297 -0.118905,-0.0798 -1.209258,-1.70027 -2.423004,-3.60103 -1.213749,-1.90076 -2.350223,-3.56702 -2.5255,-3.70279 -0.175275,-0.13577 -0.516645,-0.24685 -0.758598,-0.24685 -0.383927,0 -0.455609,0.13195 -0.563221,1.03678 -0.06782,0.57023 -0.273304,2.28092 -0.456639,3.80153 l -0.333337,2.76475 -1.327469,0.0584 c -1.296645,0.057 -1.327468,0.047 -1.327468,-0.42995 z m 2.69125,-3.57809 c 0.238241,-1.95507 0.438153,-3.66576 0.444251,-3.80153 0.0071,-0.15773 0.318252,-0.24685 0.861789,-0.24685 1.074541,0 1.099667,0.0281 3.771626,4.21395 1.167441,1.8289 2.232092,3.36747 2.365892,3.41902 0.133804,0.0516 0.596303,0.0659 1.027778,0.0319 l 0.784498,-0.0618 -2.349924,-3.75215 c -1.292458,-2.06369 -2.476088,-3.89246 -2.630288,-4.06394 -0.154201,-0.17147 -0.280365,-0.42176 -0.280365,-0.55619 0,-0.13444 1.526438,-1.90478 3.392088,-3.9341 l 3.392088,-3.68967 -0.666033,-0.0639 c -0.366318,-0.0352 -0.852909,-0.0101 -1.081311,0.0557 -0.228403,0.0658 -1.784923,1.66684 -3.458935,3.5579 -1.674012,1.89106 -3.222725,3.48662 -3.441584,3.54567 -0.706939,0.19077 -1.479574,0.12073 -1.479345,-0.13408 1.21e-4,-0.13577 0.177018,-1.62429 0.393102,-3.30782 0.521325,-4.06169 0.560457,-3.75217 -0.474368,-3.75217 -1.038712,0 -0.815254,-0.95878 -1.887054,8.09677 -0.43066,3.63861 -0.83641,6.95412 -0.901664,7.36782 l -0.118646,0.75216 0.951622,-0.061 0.951622,-0.061 z m 61.10679,3.77427 c -0.0945,-0.24735 0.95562,-9.90445 1.22215,-11.23892 0.10579,-0.52968 0.15281,-0.55031 1.12514,-0.49371 l 1.01472,0.059 0.0585,0.90313 0.0585,0.90313 0.72503,-0.68664 c 1.47373,-1.39571 3.58851,-1.83228 4.92173,-1.01606 1.49243,0.91371 1.6656,2.39293 0.95888,8.19069 l -0.4333,3.55468 -1.15757,0.0601 c -0.63666,0.0331 -1.23056,-0.0132 -1.31978,-0.10281 -0.0892,-0.0896 0.0557,-2.02726 0.322,-4.30595 0.53139,-4.54679 0.49838,-5.35724 -0.22954,-5.63515 -0.68153,-0.2602 -1.91588,0.29426 -2.60058,1.16817 -1.16032,1.48094 -1.42842,2.30297 -1.77589,5.44513 -0.18097,1.63658 -0.3974,3.08667 -0.48096,3.22243 -0.21779,0.35386 -2.27232,0.33059 -2.40908,-0.0273 z m 2.15487,-0.96015 c 0.0637,-0.46162 0.21807,-1.81684 0.34303,-3.0116 0.15452,-1.4773 0.37452,-2.49057 0.68765,-3.16707 1.22991,-2.6572 3.49318,-3.98689 4.70863,-2.76637 0.60391,0.60643 0.6133,1.21823 0.0864,5.63722 -0.53257,4.46688 -0.56305,4.18245 0.44036,4.1091 l 0.83073,-0.0608 0.45424,-3.85089 c 0.60599,-5.13751 0.43043,-6.49869 -0.9293,-7.20476 -1.36743,-0.71007 -3.15595,-0.12461 -4.62226,1.51308 -0.97189,1.08549 -1.04268,1.05238 -1.13073,-0.52901 -0.0528,-0.94964 -0.0787,-0.98972 -0.67498,-1.04786 -0.7332,-0.0715 -0.62518,-0.52166 -1.34129,5.58995 -0.26727,2.28092 -0.53371,4.48038 -0.59211,4.88768 l -0.10618,0.74056 h 0.86498 0.86497 z m 9.97227,0.39496 c 0.007,-0.46161 0.29514,-3.14984 0.63916,-5.97383 l 0.62547,-5.13454 1.15947,-0.0601 c 0.63771,-0.0331 1.22808,0.0114 1.31193,0.0987 0.13687,0.14258 -1.06856,11.06346 -1.28724,11.66216 -0.0585,0.16019 -0.5066,0.24685 -1.27632,0.24685 h -1.18614 l 0.0137,-0.8393 z m 2.70261,-4.93705 c 0.34785,-2.95976 0.63122,-5.49247 0.62972,-5.62824 -0.001,-0.15568 -0.2919,-0.24685 -0.78565,-0.24685 -0.65184,0 -0.79925,0.0743 -0.88057,0.44433 -0.0866,0.39369 -1.28645,10.35813 -1.28645,10.68316 0,0.071 0.38035,0.12899 0.84524,0.12899 h 0.84524 z m -0.95138,-8.74399 c -1.02671,-1.09744 -0.28635,-2.85808 1.20183,-2.85808 0.57919,0 0.84276,0.12873 1.24402,0.60759 0.28003,0.33418 0.50914,0.81614 0.50914,1.07101 0,0.25486 -0.22911,0.73682 -0.50914,1.071 -0.67247,0.80251 -1.75176,0.85038 -2.44585,0.10848 z m 1.92792,-0.20327 c 0.91018,-0.64018 0.34637,-2.25985 -0.78665,-2.25985 -0.50711,0 -1.13621,0.71073 -1.13621,1.28364 0,0.57289 0.6291,1.28363 1.13621,1.28363 0.19226,0 0.54625,-0.13835 0.78665,-0.30742 z M 20.779415,135.42148 c -0.07211,-0.0724 -0.131109,-1.00551 -0.131109,-2.07356 v -1.94191 h 28.22099 28.220991 v 2.07356 2.07356 H 49.000405 c -15.449436,0 -28.148882,-0.0593 -28.22099,-0.13165 z m 55.917548,-1.94191 v -1.6786 H 48.869296 21.04163 v 1.6786 1.6786 h 27.827666 27.827667 z m 26.156037,1.94377 c -5.041678,-0.42234 -9.418594,-2.34998 -12.965943,-5.71032 -6.823536,-6.46383 -8.756796,-16.16486 -4.916352,-24.6701 1.287235,-2.85077 4.091017,-6.3149 6.713129,-8.294198 3.520799,-2.657669 8.288768,-4.246695 12.742466,-4.246695 4.4537,0 9.22166,1.589026 12.74246,4.246695 1.59788,1.206155 4.10296,3.896558 5.23551,5.622838 4.19818,6.39901 4.53803,14.84708 0.87405,21.72761 -2.58314,4.85083 -7.00289,8.58658 -12.23592,10.34227 -2.25953,0.75808 -5.79745,1.18228 -8.1894,0.9819 z m 5.09078,-0.67026 c 9.08251,-1.47987 16.28996,-9.27161 17.32654,-18.73116 1.07011,-9.76551 -5.47856,-19.447644 -15.03455,-22.228409 -6.99579,-2.035755 -14.742992,-0.169219 -20.049197,4.830461 -7.11144,6.700638 -8.747192,17.208218 -3.999575,25.692098 1.037626,1.85421 3.183674,4.43417 4.859076,5.84154 2.60962,2.19213 6.559467,4.05896 9.701936,4.58545 1.46212,0.24496 5.71744,0.25089 7.19577,0.01 z m -5.97576,-1.59488 c -9.160655,-1.14904 -16.206882,-8.74451 -16.753246,-18.05916 -0.316679,-5.39888 1.579269,-10.49998 5.398721,-14.52539 2.399539,-2.528936 5.757625,-4.477079 9.215439,-5.346202 2.486356,-0.624948 6.708376,-0.624948 9.194736,0 6.51503,1.637557 11.7368,6.566502 13.75014,12.979082 2.87288,9.1502 -1.32848,18.9018 -10.02724,23.27383 -1.43105,0.71925 -3.97388,1.425 -6.05866,1.68155 -1.99005,0.24489 -2.7426,0.2443 -4.71989,-0.004 z m 6.19486,-0.707 c 5.9916,-1.12515 11.04546,-5.23354 13.49355,-10.96919 2.71218,-6.35443 1.87345,-13.27597 -2.29127,-18.90839 -2.68418,-3.630137 -6.87714,-6.251107 -11.39895,-7.125364 -1.64341,-0.317738 -5.43642,-0.317738 -7.07983,0 -6.749177,1.304898 -12.172919,6.137444 -14.328964,12.767104 -3.382048,10.3995 2.913302,21.69102 13.443984,24.11351 2.76598,0.63629 5.22802,0.67319 8.16148,0.12233 z m -6.23124,-1.44166 c -2.462192,-0.3615 -5.538732,-1.62797 -7.451184,-3.0673 -6.527953,-4.91303 -8.862063,-13.06887 -5.847286,-20.43157 0.944361,-2.30632 2.108218,-3.98949 4.059036,-5.87017 5.588635,-5.387685 13.329224,-6.32572 20.318314,-2.462247 1.65316,0.913847 4.51223,3.615217 5.65452,5.342617 1.99286,3.01368 2.98675,6.61417 2.81506,10.1979 -0.48678,10.16035 -9.59645,17.75192 -19.54846,16.29077 z m 4.36295,-0.41446 c 4.35308,-0.5346 8.41066,-2.78877 11.17201,-6.20657 1.1826,-1.46372 2.54699,-4.23007 3.11343,-6.31255 0.60517,-2.22488 0.60578,-5.86761 0.002,-8.09677 -1.62416,-5.98983 -5.77485,-10.248571 -11.7702,-12.076563 -1.50803,-0.459798 -2.07055,-0.527465 -4.3849,-0.527465 -2.32689,0 -2.87315,0.06647 -4.42101,0.537977 -2.168406,0.660533 -2.778072,0.937353 -4.517442,2.051154 -3.539064,2.266237 -6.066698,5.773967 -7.216625,10.014897 -0.604435,2.22916 -0.603827,5.87189 0.0014,8.09677 2.000739,7.35559 8.080559,12.22905 15.858737,12.71207 0.21633,0.0134 1.18981,-0.0734 2.16328,-0.19295 z m -4.44086,-1.17671 c -3.863481,-0.57069 -7.796248,-3.09571 -10.225279,-6.56508 -3.26622,-4.66513 -3.620653,-11.01582 -0.905866,-16.23129 1.17958,-2.26614 4.139276,-5.2427 6.328891,-6.36497 2.765771,-1.417578 4.102434,-1.731386 7.374824,-1.731386 3.27239,0 4.60905,0.313808 7.37482,1.731386 2.18864,1.12177 5.14873,4.09836 6.32966,6.36497 1.35371,2.59819 1.73409,4.25609 1.72175,7.50432 -0.01,2.56339 -0.0559,2.90139 -0.63376,4.64083 -0.88758,2.67172 -1.81931,4.15324 -3.97607,6.32228 -1.54341,1.5522 -2.15896,2.0209 -3.53991,2.69536 -0.91939,0.44905 -2.09911,0.96012 -2.6216,1.13573 -1.94481,0.65366 -4.82813,0.85227 -7.22746,0.49785 z m 6.21082,-0.70013 c 0.64898,-0.16285 2.10417,-0.74552 3.23375,-1.29482 1.78452,-0.86781 2.27438,-1.22237 3.73657,-2.70458 1.99477,-2.02206 3.10893,-3.88823 3.84811,-6.4454 0.69421,-2.40158 0.83177,-4.68885 0.40822,-6.78785 -0.73693,-3.65211 -1.79142,-5.65017 -4.34349,-8.2301 -1.49627,-1.51262 -2.05885,-1.93192 -3.63824,-2.71174 -2.65092,-1.308857 -3.93086,-1.607837 -6.88317,-1.607837 -2.94266,0 -4.23986,0.300959 -6.825652,1.583597 -4.038132,2.00304 -7.013262,5.91448 -7.946292,10.4471 -0.446802,2.17055 -0.46507,3.70441 -0.06908,5.8006 1.213641,6.42446 6.392733,11.36625 12.874404,12.28451 1.41333,0.20022 4.11965,0.0392 5.60487,-0.33348 z m -6.39152,-2.24929 c -0.3255,-0.32685 -0.39345,-0.65889 -0.39405,-1.92545 l -8.2e-4,-1.53048 -1.27504,-0.66205 c -3.392025,-1.76126 -5.429643,-5.79343 -4.876396,-9.64972 0.427604,-2.98052 2.610523,-6.02492 5.163226,-7.20088 l 0.98973,-0.45592 v -1.50976 c 0,-1.15395 0.0811,-1.60396 0.34416,-1.90945 0.53338,-0.61943 1.0962,-0.69458 1.68989,-0.22565 0.47578,0.37582 0.52255,0.5352 0.52255,1.7808 v 1.36805 h 0.58999 0.58998 v -1.26176 c 0,-0.91776 0.0938,-1.37072 0.34416,-1.66144 0.53339,-0.61943 1.09621,-0.69458 1.68989,-0.22565 0.48771,0.38524 0.52322,0.52046 0.53244,2.02766 l 0.01,1.61489 1.12093,0.53659 c 1.45282,0.69547 2.79256,1.92645 2.79256,2.56588 0,0.57582 -0.74922,1.34088 -1.3131,1.34088 -0.22153,0 -0.74681,-0.27864 -1.1673,-0.61921 -1.46514,-1.18667 -2.73965,-1.64281 -4.60357,-1.64756 -1.50167,-0.004 -1.81217,0.0631 -2.98874,0.6448 -2.460413,1.21631 -3.746617,3.34415 -3.746047,6.1973 5.9e-4,3.36028 2.173054,5.97043 5.579687,6.70406 1.77062,0.38132 4.04284,-0.22521 5.57898,-1.48921 0.49205,-0.40489 1.07454,-0.706 1.36572,-0.706 0.6381,0 1.29437,0.64154 1.29437,1.26533 0,0.60825 -1.55693,2.03961 -2.93115,2.69477 l -1.00209,0.47775 v 1.4893 c 0,1.76241 -0.30428,2.3671 -1.19113,2.3671 -0.97471,0 -1.36548,-0.5934 -1.36548,-2.07356 v -1.28364 h -0.59 -0.58998 v 1.2397 c 0,1.49946 -0.34766,2.1175 -1.19113,2.1175 -0.31836,0 -0.75583,-0.17774 -0.97216,-0.39497 z m 1.56638,-0.38198 c 0.11197,-0.21009 0.20358,-0.96546 0.20358,-1.67859 v -1.29662 h 0.98331 0.98331 v 1.36827 c 0,1.38749 0.26761,1.98892 0.88498,1.98892 0.64875,0 0.88493,-0.59439 0.88834,-2.23577 l 0.004,-1.61513 1.1189,-0.48674 c 1.09417,-0.47598 2.80761,-1.8972 2.80761,-2.32879 0,-0.29806 -0.56179,-0.83789 -0.87198,-0.83789 -0.13965,0 -0.59794,0.27865 -1.01843,0.61922 -0.42048,0.34057 -1.25126,0.84949 -1.84616,1.13093 -0.91573,0.43321 -1.35315,0.51131 -2.8516,0.50915 -2.40892,-0.004 -3.72521,-0.52538 -5.240867,-2.07799 -3.549053,-3.63558 -2.445751,-9.67225 2.154267,-11.787 2.2926,-1.05396 5.43139,-0.75699 7.20138,0.68135 1.30027,1.05663 1.61954,1.17252 2.07927,0.75474 0.21677,-0.19699 0.39412,-0.47014 0.39412,-0.607 0,-0.39765 -1.72423,-1.81185 -2.87637,-2.35918 l -1.05686,-0.50206 v -1.48831 c 0,-1.71682 -0.2104,-2.25228 -0.88499,-2.25228 -0.65693,0 -0.88497,0.53099 -0.88497,2.06058 v 1.29662 h -0.9833 -0.98331 v -1.29662 c 0,-1.52959 -0.22804,-2.06058 -0.88498,-2.06058 -0.68141,0 -0.88497,0.5372 -0.88497,2.3354 0,1.53192 -0.013,1.57471 -0.51685,1.70169 -0.85228,0.2148 -2.487641,1.36907 -3.400682,2.40027 -2.913954,3.29105 -3.006615,8.34047 -0.214871,11.70908 0.958846,1.15698 2.376843,2.21076 3.507373,2.60651 l 0.62503,0.2188 v 1.5166 c 0,1.05302 0.0936,1.65075 0.30614,1.9555 0.37704,0.54054 0.98778,0.56813 1.26023,0.057 z m 28.5654,6.94894 0.0558,-2.12361 h 28.12267 28.12266 v 2.07357 2.07355 l -28.17849,0.05 -28.17849,0.05 z m 56.00616,0.0487 v -1.67859 H 159.9833 132.15563 v 1.6786 1.67859 h 27.82767 27.82767 z"
       id="path21" />
  </g>
</svg>
